<?xml version="1.0" encoding="UTF-8"?>
<svg xmlns="http://www.w3.org/2000/svg" viewBox="0 0 1095 1095" width="1095" height="1095">
<path d="M276 484.89C275.67 484.87 275.33 484.85 275 484.84C274.83 484.47 274.67 484.09 274.5 483.72C272.89 485.45 272.81 485.86 272.71 488.5C273.05 488.67 273.4 488.83 273.74 489C273.88 508.33 274.01 527.67 274.15 547C274.03 551 273.91 555 273.79 559C273.53 559.17 273.26 559.33 273 559.5C273 561.5 273 563.5 273 565.5C273.31 565.67 273.61 565.83 273.92 566C273.93 567.67 273.94 569.33 273.95 571C273.63 571.17 273.32 571.33 273 571.5C273 574.17 273 576.83 273 579.5C273.33 579.67 273.67 579.83 274 580C274.14 592.67 274.29 605.33 274.43 618C274.45 620.33 274.46 622.67 274.47 625C274.71 630.65 274.94 636.3 275.17 641.95C275.61 642.63 276.06 643.32 276.5 644C277.83 643.97 279.17 643.94 280.5 643.91C280.93 643.54 281.36 643.18 281.8 642.81C287.53 643.53 293.27 644.25 299 644.96C299.5 645.64 300 646.32 300.5 647C301.5 646.94 302.5 646.87 303.5 646.81C303.72 646.46 303.94 646.11 304.17 645.75C310.9 645.23 317.79 647.54 324.5 648.13C331.09 648.72 338.58 648.59 345.14 647.52C382.64 641.36 394.44 606.84 393.75 573C393.57 571.21 393.39 569.42 393.2 567.63C392.98 559.16 391.33 550.64 388.7 542.59C387.51 538.96 385.73 535.47 384.89 531.81C389.86 529.7 391.95 523.51 392.21 518.5C390 517.83 387.79 517.17 385.58 516.5C384.45 511.26 386.5 513.69 381.32 509.5C384.58 505.32 382.41 508.28 381.55 505.4C381.22 504.3 382.05 503.66 381.51 502.62C380.08 499.85 378.54 501.99 379.21 497.5C375.86 496.5 372.5 495.5 369.14 494.5C369.08 490.09 367.07 490.29 364 487.5C362.5 487.88 361 488.26 359.5 488.64C358.5 487.21 357.5 485.79 356.5 484.36C356.04 484.5 355.9 485.14 355.5 485.41C354.31 486.19 353.76 484.94 352.61 485.05C351.36 485.18 349.95 485.88 348.5 486C347.93 484.83 347.36 483.67 346.79 482.5C343.08 482.53 343.55 483.49 340.5 485.64C340 484.94 338.28 481.23 338.25 481.22C336.79 480.5 335.8 481.93 334.44 481.48C333.38 481.13 332.16 478.27 331.5 477.36C330.33 478.4 329.17 479.45 328 480.5C329.45 483.05 330.6 483.8 329 486.5C325.19 486.26 319.47 481.73 316.53 482.35C315.19 482.63 313.85 484.25 312.5 484.88C311.33 483.75 310.17 482.63 309 481.5C310.44 479.06 311.28 476.94 310.69 474.01C310.58 473.46 309.95 473.1 309.95 472.51C309.97 469.53 311.25 470.16 309 467.5C310.58 466.8 309.58 466.82 310.92 466.42C311.75 466.17 312.55 467.17 313.37 466.49C313.66 466.25 313.23 465.53 313.29 465.34C313.66 464.31 314.82 463.08 315.5 462.21C316.88 463.51 323.2 468.75 323.86 469.75C324.53 470.76 324.96 472.72 325.5 473.86C328.94 472.91 332.6 468.7 335.53 468.48C336.62 468.4 337.39 469.38 338.5 469.39C340 469.4 339.02 468.6 340.47 468.47C341.61 468.37 341.64 469.31 342.58 469.46C343.48 469.6 344.35 468.95 345.36 469.14C346.54 469.37 347.23 470.37 348.5 470.44C349.03 470.47 349.7 469.95 350.26 470.02C350.37 470.04 351.55 470.85 351.63 470.85C352.75 470.79 353.35 469.85 354.47 469.84C355.85 469.83 357.57 470.47 359.3 470.5C358.17 467.27 359.64 463.95 359.37 460.5C359.28 459.49 358.54 458.39 358.76 457.36C358.95 456.45 359.95 455.88 360.5 455.21C362.95 459.18 360.9 458.74 361.51 462.47C361.88 464.75 361.77 461.91 362.5 464C364.14 463.61 365.86 463.59 367.37 462.75C368 462.39 368.13 461.45 368.78 461.16C369.68 460.75 370.5 461.3 371.4 460.91C372.12 460.59 372.09 459.65 372.76 459.41C373.96 458.98 375.19 460.02 376.31 459.02C377.51 457.96 376.49 458.11 377.5 456.79C378.5 457.93 379.5 459.07 380.5 460.21C382.89 456.96 382.7 456.55 386.51 458.09C389.35 459.23 389.33 458.9 390.5 461.79C393.42 461.08 394.94 461.41 397.17 463.5C396.77 466.2 395.71 467.88 397.05 470.5C398.9 472.28 399.07 471.25 401.24 471.81C401.84 471.97 402.03 472.85 402.61 473.08C404.01 473.62 405.94 472.95 407.5 473.25C409.58 476.07 411.16 476.99 414.5 477.95C415.59 477.54 417.36 476.44 418.5 476.42C419.16 476.4 419.72 477.15 420.37 477.04C421.31 476.88 421.56 475.97 422.54 475.8C425.1 475.38 427.62 476.52 429.5 478C429.6 476.5 429.69 475 429.79 473.5C432.3 473.58 435.74 474.75 438.43 474.14C439.38 473.93 441.52 472.95 442.38 472.45C442.76 472.23 442.64 471.47 443.05 471.32C443.67 471.1 444.36 471.63 445 471.5C446.62 476.02 443.18 477.09 450 476.5C449.4 474.17 448.81 471.83 448.21 469.5C449.38 469.44 451.77 468.77 452.68 469.72C454.05 471.14 453.78 474.71 456.84 474.88C457.14 474.9 457.39 474.4 457.68 474.5C457.39 473.3 456.12 471.69 456.2 470.53C456.27 469.5 457.11 469.16 457.6 468.39C460.09 464.5 462.4 466.11 465.7 468.5C464.3 469.89 462.9 471.29 461.5 472.68C461.12 475.15 462.03 478.79 460.62 481.24C460.25 481.89 458.99 481.67 458.84 482.55C458.66 483.59 459.91 483.79 460.04 484.67C460.15 485.39 459.51 486.06 459.5 486.79C457.15 486.92 456.35 485.44 454.5 484C452.19 489.3 451.3 487.12 446.5 487.49C441.66 487.85 442.47 489.86 437.5 487.7C435.45 489.92 435.3 490.54 432.5 489.79C432.67 493.21 432.83 496.64 433 500.06C432 500.21 431 500.35 430 500.5C429.91 505.33 429.83 510.17 429.74 515C427.16 516.24 428.42 520.63 428.43 523.5C428.46 531.17 428.3 538.83 428.29 546.5C428.27 568.5 428.06 590.51 428.24 612.5C428.28 617.54 427.83 623.02 428.34 628.01C428.43 628.89 428.94 629.54 428.94 630.5C428.94 631.44 428.42 632.1 428.34 632.97C428.08 635.92 428.87 638.63 429 641.5C429.14 644.48 428.27 647.48 428.15 650.5C428.05 653.1 427.42 656.54 429.65 658C429.79 658.33 429.93 658.67 430.07 659C430.13 659.5 430.18 660 430.23 660.5C432.14 660.83 434.05 661.17 435.96 661.5C435.92 661.6 435.87 661.71 435.83 661.81C436.89 662.04 437.94 662.27 439 662.5C439.35 662.3 439.7 662.1 440.05 661.9C450.03 663.27 460.02 664.64 470 666.01C470.5 666.67 471 667.34 471.5 668C472.53 667.59 473.57 667.17 474.6 666.76C477.4 667.02 480.2 667.28 483 667.54C483.33 667.86 483.67 668.18 484 668.5C485.15 668.33 486.3 668.15 487.45 667.98C498.63 669.28 509.82 670.58 521 671.89C521.83 672.03 522.67 672.17 523.5 672.31C523.71 671.88 523.93 671.44 524.14 671C524.6 671.35 525.05 671.71 525.5 672.06C525.59 670.42 525.67 668.79 525.76 667.15C525.84 665.6 525.92 664.05 526 662.5C525.38 662 524.75 661.5 524.13 661C523.92 659.35 523.71 657.7 523.5 656.05C506.49 653.34 489.28 651.69 472.18 649.46C464.62 648.48 454.79 648.72 448.01 645.5C448.08 628 448.14 610.5 448.21 593C448.64 593.38 449.07 593.77 449.5 594.15C449.88 591.41 450.03 590.17 452 588.26C459.67 589.18 467.33 590.09 475 591.01C475.5 591.67 476 592.34 476.5 593C477.5 593.01 478.5 593.02 479.5 593.03C479.72 592.6 479.94 592.17 480.17 591.74C489.78 592.81 499.39 593.87 509 594.94C509.17 595.62 509.33 596.3 509.5 596.99C511.07 596.83 512.64 596.66 514.21 596.5C513.47 596.05 512.74 595.6 512 595.14C512.44 594.93 512.89 594.71 513.33 594.5C513.42 589.5 513.5 584.5 513.58 579.5C512.06 578.97 510.53 578.44 509 577.9C509.08 577.44 509.16 576.97 509.25 576.5C506.88 576.57 507.54 576.32 505.83 577.27C486.72 575.25 467.61 573.24 448.5 571.22C448.5 553.85 448.5 536.49 448.5 519.12C470.67 521.33 492.83 523.55 515 525.76C516.5 525.92 518 526.09 519.5 526.25C519.67 526 519.83 525.76 520 525.52C520.68 525.45 521.37 525.39 522.05 525.33C521.72 527.05 521.4 528.78 521.07 530.5C529.39 533.16 526.04 536.73 527.4 543.5C529.43 543.21 531.47 542.93 533.5 542.64C535.17 540.99 536.83 539.34 538.5 537.68C539.02 534.73 539.53 531.78 540.05 528.83C555.92 530.72 571.79 532.61 587.65 534.5C587.94 583.16 588.22 631.81 588.5 680.47C591.48 680.91 593.44 680.77 595.5 683C599.39 680.28 602.57 683.61 606.17 681C606.8 680.83 607.44 680.67 608.07 680.5C608.11 676.83 608.14 673.17 608.18 669.5C607.52 669.33 606.86 669.17 606.2 669C606.21 667.67 606.22 666.33 606.23 665C606.82 664.83 607.4 664.67 607.99 664.5C607.78 663.67 607.56 662.83 607.35 662C609.49 656.78 608.07 644.61 608.06 638.5C608.05 635.51 608.44 632.29 606.89 630C606.89 627.33 606.89 624.67 606.89 622C607.26 621.83 607.64 621.67 608.02 621.5C608.02 619.17 608.03 616.83 608.04 614.5C607.65 614.33 607.27 614.17 606.89 614C606.15 611.39 605.49 596.11 606.41 594.03C606.75 593.26 607.43 593.05 608 592.5C604.94 588.83 606.25 581.36 606.24 576.5C606.22 563.16 606.18 549.84 606.36 536.5C621.24 537.88 636.12 539.26 651 540.64C652.17 540.71 653.33 540.78 654.5 540.85C654.7 540.57 654.9 540.28 655.1 540C655.52 539.94 655.93 539.89 656.34 539.83C659.37 539.27 659.44 537.83 663.5 539.6C665.67 538.23 667.83 536.87 670 535.5C667.07 532.66 668.73 534.2 668.13 530.52C667.41 526.12 666.82 527.45 670.5 523.79C672.33 524.36 674.17 524.93 676 525.5C676.45 522.64 674.68 520.63 673 518.5C674.23 517.63 677.82 515.78 678.3 514.26C679.13 511.65 677.04 512.66 679.5 509.21C681.56 511.11 682.84 511.94 685.5 511C686.73 507.14 684.87 504.99 683.5 501.25C680.79 500.96 679.56 500.49 677.6 498.5C679.22 495.32 679.57 497.3 681.33 495.42C682.13 494.58 680.9 493.62 681.6 492.69C681.83 492.39 682.36 492.35 682.5 492C687.37 493.99 689.71 491.45 693.79 494.5C692.97 495.22 690.87 496.25 690.34 497.08C689.59 498.26 690.45 499.73 689.2 500.77C688.41 501.42 686.16 501.95 685.17 502.5C685.6 503.03 686.86 505.06 687.58 505.26C689.41 505.75 689.23 504.03 690.6 503.96C691.66 503.9 691.7 505.18 692.63 505.25C693.98 505.36 695.59 503.43 696.5 502.68C698.42 503.95 700.33 505.23 702.25 506.5C701.92 509.5 701.43 510.84 704.17 512.5C701.52 514.98 702.51 519.19 700.93 522.5C698.65 523.94 698.1 524.06 698.3 526.5C694.55 526.96 692.3 527.44 689.5 529.64C686.1 527.79 681.84 523.94 680.83 530.5C681.85 530.61 681.37 531.05 682.41 530.94C683.12 530.86 683.59 529.72 684.31 529.92C686.55 530.53 683.68 530.29 685.83 531.5C685.13 533.23 684.54 535.28 682.26 535.6C681.67 535.69 681.07 535.2 680.5 535.37C679.31 535.74 678.76 536.64 677.55 536.93C673.9 537.82 673.52 535.47 675.21 541.5C680.29 538.64 676.91 546.57 682.5 543.7C682.61 541.32 681 541.07 678.86 539.5C682.21 537.95 682.82 538.15 685.5 540.79C687.44 535.88 687.23 538.54 691.5 538.07C691.53 534.03 691.06 535.31 688.17 532.5C688.99 532 689.39 530.92 690.53 531.06C691.65 531.2 691.12 532.36 691.52 532.91C693.09 535.02 694.24 536.66 696.5 538.07C695.99 534.61 693.46 533.34 696.5 531.36C697.19 531.49 698.51 531.09 699.03 531.83C699.6 532.64 698.46 533.59 698.68 534.46C699.14 536.39 700.85 538.26 701.5 540.21C703.17 539.79 704.83 539.37 706.5 538.95C709.54 542.27 708.97 548.66 707.14 552.5C705.6 553 704.05 553.5 702.5 554C701.8 556.63 702.62 559.74 701.52 562.44C700.45 565.06 698.98 565.29 700.05 568.5C702.69 568.61 703.45 567.59 705.5 566C705.91 566.86 708.8 571.34 708.87 571.74C709.01 572.69 707.84 573.71 708.09 574.47C708.56 575.93 710.05 575.55 710.68 576.66C712.19 579.3 710.66 581.98 708.68 583.5C710.79 582.9 712.89 581.3 713.67 584.53C713.76 584.94 713.81 586.54 713.54 586.93C713.24 587.37 709.38 588.74 708.32 589.5C709.15 592.93 710.54 593.35 713.5 595C713.73 598.48 712.21 604.04 715.76 605.68C715.34 715.95 714.92 826.23 714.49 936.5C712.33 936.81 710.16 937.11 708 937.42C676.67 932.35 645.33 927.27 614 922.19C613.83 921.8 613.67 921.4 613.5 921C611.86 921.14 610.21 921.27 608.57 921.41C608.38 921.35 608.19 921.3 608 921.24C607.83 920.83 607.67 920.41 607.5 920C606 920.14 604.5 920.28 603 920.42C561.33 913.66 519.67 906.9 478 900.15C477.83 899.77 477.67 899.38 477.5 899C475.86 899.13 474.21 899.27 472.57 899.4C472.38 899.35 472.19 899.29 472 899.23C471.83 898.82 471.67 898.41 471.5 898C470 898.14 468.5 898.29 467 898.43C454 896.36 441 894.28 428 892.2C427.83 891.8 427.67 891.4 427.5 891C425.86 891.14 424.21 891.27 422.57 891.41C414.04 890.01 405.52 888.61 397 887.22C396.83 886.81 396.67 886.41 396.5 886C395 886.14 393.5 886.28 392 886.42C391.67 886.37 391.33 886.31 391 886.26C390.83 885.84 390.67 885.42 390.5 885C389 885.15 387.5 885.29 386 885.44C358.67 881.03 331.33 876.61 304 872.2C303.83 871.8 303.67 871.4 303.5 871C302 871.14 300.5 871.28 299 871.42C286.33 869.36 273.67 867.3 261 865.24C260.83 864.83 260.67 864.41 260.5 864C259 864.14 257.5 864.29 256 864.43C233 860.69 210 856.94 187 853.19C186.83 852.79 186.67 852.4 186.5 852C184.87 852.13 183.24 852.26 181.61 852.4C181.41 852.33 181.2 852.27 181 852.2C180.83 851.8 180.67 851.4 180.5 851C179 851.14 177.5 851.28 176 851.42C173.33 851.01 170.67 850.6 168 850.19C167.83 849.79 167.67 849.4 167.5 849C166 849.15 164.5 849.29 163 849.44C160.87 849.12 161.04 849.04 159.51 847.5C159.95 847 160.39 846.5 160.83 846C160.89 844.17 160.94 842.33 161 840.5C160.62 840.33 160.24 840.17 159.86 840C159.84 837.39 159.81 834.78 159.79 832.17C162.11 828.08 160.66 816.65 160.03 811.44C158.51 798.8 162.27 781.98 159.4 770C159.1 767.5 158.8 765 158.5 762.5C159.68 760.88 159.78 761.1 159.72 759C159.28 740.33 158.84 721.67 158.4 703C158.43 702 158.47 701 158.5 700C158.44 699 158.38 698 158.32 697C160.17 687.84 158.93 674.87 158.04 665.5C157.1 655.69 158 645.36 158 635.5C158 630.47 159.37 617.45 156.85 614C156.78 609.67 156.7 605.33 156.62 601C156.69 579.67 156.76 558.33 156.83 537C156.83 529.33 156.83 521.67 156.83 514C156.5 497 156.17 480 155.83 463C155.94 457.02 156.06 451.04 156.17 445.05C158.01 444.73 157.67 444.75 158.68 443.5C157.65 440.4 158.3 439.24 160 436.5C156.49 435.47 157.43 432.79 157.34 429.5C158.63 428.61 160.33 427.96 161.16 426.68C161.53 426.11 161.33 425.26 161.73 424.74C162.28 424.02 163.28 424.04 163.78 423.24C164.34 422.35 163.59 421.12 164.63 420.5C164.71 420.45 167.66 420.55 168 420.5C167.8 419.08 168.1 416.84 167.68 415.58C167.44 414.88 166.52 415.08 166.26 414.31C165.79 412.91 165.85 410.82 165.5 409.36C163.39 413.35 160.2 414.11 157.71 409.34C155.28 404.7 156.51 396.02 161.5 394.14C162.2 395 162.32 393.63 162.72 394.76C163.06 395.72 162 396.55 162.48 397.64C163.17 399.18 167.01 400.17 168.37 399.11C170.31 397.59 167.58 399.16 169.5 396.95C170.23 398.17 171.23 399.34 171.6 400.74C171.82 401.57 171.35 402.7 171.97 403.45C173.21 404.94 179.94 404.99 181.5 404.7C182.95 406.51 185.35 409.85 184.3 412.36C184.04 412.97 183.06 413.08 182.86 413.7C182.36 415.26 183.52 413.25 183.5 414.86C186.17 417.41 189.05 417.02 192.21 418.5C189.07 420.5 185.93 422.5 182.79 424.5C185.37 426.39 186.28 427.78 187.5 430.79C189.18 430.38 193.46 429.42 194.96 430.78C196.43 432.11 194.56 430.86 195.7 432.5C192.93 433.98 191.41 433.49 188.5 433.64C186.19 435.01 187.41 437.32 183.36 439.5C183.72 440.04 185.8 442.33 185.84 442.46C185.84 442.47 185.41 444.49 185.41 444.5C184.99 448.23 185.53 451.21 187.5 454.21C189.96 450.53 191.18 447.34 195.5 445.83C195.09 449.34 196.04 445.56 195.44 448.25C195.27 449.04 193.83 449.41 193.92 450.22C194.12 451.98 196.7 450.9 195.79 455.5C193.3 456.17 190.81 456.83 188.32 457.5C188.38 459.77 188.44 462.03 188.5 464.3C191.1 459.47 190.88 461.48 194.5 464.21C194.77 462.98 194.95 460.88 195.41 459.74C195.84 458.69 197.28 458.23 197.71 457.03C198.1 455.93 197.85 455.06 198.34 453.95C199.25 451.88 200.95 452.39 202.21 449.5C199.13 447.87 194.96 445.46 195.22 441.52C195.26 440.89 195.17 439.49 195.82 439.06C197.1 438.21 196 439.51 197.5 439.07C197.66 440.2 197.34 442.33 197.72 443.31C199.03 446.7 201.51 443.72 203.5 443.52C204.23 443.45 205.29 444.37 205.93 444.1C206.14 444.01 207.77 441.61 208.5 441C210.41 442.73 211.14 443.88 211.78 446.5C206.28 451.11 204.98 453.4 210.5 458.86C212.48 456.95 213.49 456.17 216.5 456.68C217.5 454.44 218.5 452.2 219.5 449.95C221.74 450.98 222.06 451.33 224.5 451C224.79 457.74 225.98 455.44 228 460.5C231.23 460.7 233.33 461.27 236.5 460.32C239.83 462.44 239.7 462.71 243.68 463.5C241.18 465.75 240.8 467.06 241 470.5C245.1 471.5 249.61 471.39 251.5 467.32C257.1 472.04 256 465.33 259.54 465.46C262.03 465.54 258.95 465.82 261.68 466.5C260.25 468.86 258.31 469.1 258.01 469.67C256.99 471.6 258.61 469.36 258.14 471.5C259.01 472.4 257.81 472.12 258.82 472.74C260.34 473.69 261.28 471.99 262.55 472.19C264.79 472.54 265.91 475.88 265.79 477.5C266.93 477.77 269.12 477.97 270.16 478.47C270.79 478.77 270.61 479.65 271.44 480.03C272.29 480.42 273.56 479.91 274.33 480.38C275.99 481.4 273.32 481.71 277.5 482.88C277 483.55 276.5 484.22 276 484.89ZM360.41 525.77C360.31 526.18 360.21 526.59 360.11 527C360.4 527.41 360.7 527.82 361 528.24C361.35 528.23 361.7 528.23 362.05 528.22C366.49 531.75 368.73 539.81 370.4 545.19C374.95 559.85 377.54 586.84 370.94 601C370.46 600.91 369.98 600.81 369.5 600.72C369.16 602.31 368.82 603.91 368.47 605.5C368.69 605.68 368.9 605.87 369.11 606.05C367.36 614.83 359.8 624.38 351.13 627.25C349.59 627.5 348.04 627.75 346.5 628C346.39 628.36 346.28 628.73 346.18 629.09C343.78 629.65 341.39 630.21 339 630.78C338.83 630.21 338.67 629.64 338.5 629.07C337.17 629.38 335.83 629.69 334.5 630C334.33 630.32 334.17 630.65 334 630.97C320.89 632.28 306.53 629.25 293.5 627.57C293.07 626.71 292.63 625.86 292.2 625C292.63 624.75 293.07 624.5 293.5 624.26C293.19 611.5 292.89 598.75 292.58 586C292.34 583.67 292.11 581.33 291.87 579C291.86 578.33 291.86 577.67 291.85 577C292 576.67 292.14 576.33 292.28 576C293.7 572.84 293.72 558.67 291.96 556C291.88 554 291.8 552 291.72 550C291.7 545.67 291.69 541.33 291.67 537C291.67 535.67 291.67 534.33 291.67 533C291.65 527.67 291.63 522.33 291.62 517C291.62 515.33 291.63 513.67 291.64 512C291.65 510 291.67 508 291.68 506C292.05 505.17 291.49 504.59 292.58 503.99C294.68 502.84 307.09 504.99 310 505.32C325.35 507.05 340 508.15 352.71 517.85C355.66 520.11 358.67 522.51 360.41 525.77ZM493 506.16C490.56 505.85 488.13 505.55 485.69 505.24C485.96 504.84 486.23 504.44 486.5 504.03C489.34 504.14 491.08 504.18 493 506.16ZM522.25 520C522.89 520.17 523.53 520.33 524.17 520.5C524.17 521.17 524.16 521.83 524.16 522.5C524.12 523.17 524.09 523.83 524.05 524.5C523.39 524.78 522.72 525.05 522.05 525.33C522.12 523.55 522.19 521.78 522.25 520ZM238.13 629.15C238.45 628.77 238.78 628.38 239.1 628C239.57 627.92 240.03 627.84 240.5 627.76C240.5 626.11 240.5 624.47 240.5 622.83C240.04 622.89 239.58 622.94 239.13 623C238.8 622.6 238.48 622.19 238.15 621.79C235.55 609.16 216.27 606.16 214.21 620.55C212.06 635.54 233.97 644.58 238.13 629.15Z" fill="#126011" fill-rule="evenodd" stroke="#126011" stroke-width="0.25" stroke-linejoin="round"/>
<path d="M181.17 277.21C180.17 278.67 180.69 277.95 181.5 279.21C192.33 280.07 203.17 280.92 214 281.78C215.06 281.97 216.11 282.16 217.17 282.36C217.39 282.36 217.61 282.36 217.83 282.36C219.56 282.55 221.28 282.74 223 282.93C224.67 283.17 226.33 283.42 228 283.66C229.61 283.8 231.22 283.93 232.83 284.06C234.22 284.28 235.61 284.49 237 284.71C237.19 284.75 237.39 284.8 237.58 284.85C247.06 285.64 256.53 286.42 266 287.21C266.17 287.24 266.34 287.27 266.5 287.3C273.61 287.92 280.72 288.55 287.83 289.17C289.28 289.24 290.72 289.31 292.17 289.38C293.72 289.63 295.28 289.88 296.83 290.13C297.94 290.2 299.06 290.27 300.17 290.34C307.71 291.18 315.26 292.02 322.81 292.86C325.2 292.91 327.6 292.96 330 293.01C331.33 293.23 332.67 293.46 334 293.68C340 294.12 346 294.55 352 294.99C353.33 295.24 354.67 295.49 356 295.75C357.67 295.83 359.33 295.91 361 296C362.67 296.26 364.33 296.53 366 296.79C367.67 296.87 369.33 296.94 371 297.01C372.67 297.24 374.33 297.46 376 297.69C377.67 297.84 379.33 297.99 381 298.14C381.33 298.19 381.67 298.24 382 298.3C393.06 299.17 404.12 300.04 415.18 300.91C415.28 301.11 415.39 301.3 415.5 301.49C419 301.83 422.5 302.17 426 302.51C426.67 302.61 427.33 302.71 428 302.81C430 302.9 432 303 434 303.09C435.17 303.37 436.33 303.65 437.5 303.93C437.72 303.72 437.94 303.5 438.17 303.28C440.11 303.55 442.06 303.81 444 304.08C477 307.35 510 310.62 543 313.89C580.33 317.54 617.67 321.19 655 324.84C675.63 326.91 696.26 328.98 716.88 331.04C717.02 340.7 717.16 350.35 717.31 360C716.79 441.89 716.27 523.79 715.76 605.68C712.21 604.04 713.73 598.48 713.5 595C710.54 593.35 709.15 592.93 708.32 589.5C709.38 588.74 713.24 587.37 713.54 586.93C713.81 586.54 713.76 584.94 713.67 584.53C712.89 581.3 710.79 582.9 708.68 583.5C710.66 581.98 712.19 579.3 710.68 576.66C710.05 575.55 708.56 575.93 708.09 574.47C707.84 573.71 709.01 572.69 708.87 571.74C708.8 571.34 705.91 566.86 705.5 566C703.45 567.59 702.69 568.61 700.05 568.5C698.98 565.29 700.45 565.06 701.52 562.44C702.62 559.74 701.8 556.63 702.5 554C704.05 553.5 705.6 553 707.14 552.5C708.97 548.66 709.54 542.27 706.5 538.95C704.83 539.37 703.17 539.79 701.5 540.21C700.85 538.26 699.14 536.39 698.68 534.46C698.46 533.59 699.6 532.64 699.03 531.83C698.51 531.09 697.19 531.49 696.5 531.36C693.46 533.34 695.99 534.61 696.5 538.07C694.24 536.66 693.09 535.02 691.52 532.91C691.12 532.36 691.65 531.2 690.53 531.06C689.39 530.92 688.99 532 688.17 532.5C691.06 535.31 691.53 534.03 691.5 538.07C687.23 538.54 687.44 535.88 685.5 540.79C682.82 538.15 682.21 537.95 678.86 539.5C681 541.07 682.61 541.32 682.5 543.7C676.91 546.57 680.29 538.64 675.21 541.5C673.52 535.47 673.9 537.82 677.55 536.93C678.76 536.64 679.31 535.74 680.5 535.37C681.07 535.2 681.67 535.69 682.26 535.6C684.54 535.28 685.13 533.23 685.83 531.5C683.68 530.29 686.55 530.53 684.31 529.92C683.59 529.72 683.12 530.86 682.41 530.94C681.37 531.05 681.85 530.61 680.83 530.5C681.84 523.94 686.1 527.79 689.5 529.64C692.3 527.44 694.55 526.96 698.3 526.5C698.1 524.06 698.65 523.94 700.93 522.5C702.51 519.19 701.52 514.98 704.17 512.5C701.43 510.84 701.92 509.5 702.25 506.5C700.33 505.23 698.42 503.95 696.5 502.68C695.59 503.43 693.98 505.36 692.63 505.25C691.7 505.18 691.66 503.9 690.6 503.96C689.23 504.03 689.41 505.75 687.58 505.26C686.86 505.06 685.6 503.03 685.17 502.5C686.16 501.95 688.41 501.42 689.2 500.77C690.45 499.73 689.59 498.26 690.34 497.08C690.87 496.25 692.97 495.22 693.79 494.5C689.71 491.45 687.37 493.99 682.5 492C682.36 492.35 681.83 492.39 681.6 492.69C680.9 493.62 682.13 494.58 681.33 495.42C679.57 497.3 679.22 495.32 677.6 498.5C679.56 500.49 680.79 500.96 683.5 501.25C684.87 504.99 686.73 507.14 685.5 511C682.84 511.94 681.56 511.11 679.5 509.21C677.04 512.66 679.13 511.65 678.3 514.26C677.82 515.78 674.23 517.63 673 518.5C674.68 520.63 676.45 522.64 676 525.5C674.17 524.93 672.33 524.36 670.5 523.79C666.82 527.45 667.41 526.12 668.13 530.52C668.73 534.2 667.07 532.66 670 535.5C667.83 536.87 665.67 538.23 663.5 539.6C659.44 537.83 659.37 539.27 656.34 539.83C656.85 537.4 657.22 534.79 655.13 533C655.13 532.67 655.14 532.33 655.14 532C655.42 531.83 655.71 531.67 656 531.5C656.33 530.5 656.67 529.5 657 528.5C656.5 527 656 525.5 655.5 524C655.41 524.2 655.33 524.4 655.24 524.6C650.97 521.78 633.44 521.19 627.47 520.63C608.99 518.9 590.48 516.66 572 514.69C565.55 514 553.5 514.43 548 511.5C545.22 513.08 542.47 511.09 539.98 513C539.65 513.17 539.33 513.33 539 513.5C539 515.17 539 516.83 539 518.5C539.25 518.67 539.5 518.83 539.76 519C539.88 519.67 540.01 520.33 540.13 521C540.11 523.61 540.08 526.22 540.05 528.83C539.53 531.78 539.02 534.73 538.5 537.68C536.83 539.34 535.17 540.99 533.5 542.64C531.47 542.93 529.43 543.21 527.4 543.5C526.04 536.73 529.39 533.16 521.07 530.5C521.4 528.78 521.72 527.05 522.05 525.33C522.72 525.05 523.39 524.78 524.05 524.5C524.09 523.83 524.12 523.17 524.16 522.5C524.16 521.83 524.17 521.17 524.17 520.5C523.53 520.33 522.89 520.17 522.25 520C522 516.56 521.75 513.11 521.5 509.67C512 508.5 502.5 507.33 493 506.16C491.08 504.18 489.34 504.14 486.5 504.03C486.23 504.44 485.96 504.84 485.69 505.24C468.13 503.51 450.56 501.79 433 500.06C432.83 496.64 432.67 493.21 432.5 489.79C435.3 490.54 435.45 489.92 437.5 487.7C442.47 489.86 441.66 487.85 446.5 487.49C451.3 487.12 452.19 489.3 454.5 484C456.35 485.44 457.15 486.92 459.5 486.79C459.51 486.06 460.15 485.39 460.04 484.67C459.91 483.79 458.66 483.59 458.84 482.55C458.99 481.67 460.25 481.89 460.62 481.24C462.03 478.79 461.12 475.15 461.5 472.68C462.9 471.29 464.3 469.89 465.7 468.5C462.4 466.11 460.09 464.5 457.6 468.39C457.11 469.16 456.27 469.5 456.2 470.53C456.12 471.69 457.39 473.3 457.68 474.5C457.39 474.4 457.14 474.9 456.84 474.88C453.78 474.71 454.05 471.14 452.68 469.72C451.77 468.77 449.38 469.44 448.21 469.5C448.81 471.83 449.4 474.17 450 476.5C443.18 477.09 446.62 476.02 445 471.5C444.36 471.63 443.67 471.1 443.05 471.32C442.64 471.47 442.76 472.23 442.38 472.45C441.52 472.95 439.38 473.93 438.43 474.14C435.74 474.75 432.3 473.58 429.79 473.5C429.69 475 429.6 476.5 429.5 478C427.62 476.52 425.1 475.38 422.54 475.8C421.56 475.97 421.31 476.88 420.37 477.04C419.72 477.15 419.16 476.4 418.5 476.42C417.36 476.44 415.59 477.54 414.5 477.95C411.16 476.99 409.58 476.07 407.5 473.25C405.94 472.95 404.01 473.62 402.61 473.08C402.03 472.85 401.84 471.97 401.24 471.81C399.07 471.25 398.9 472.28 397.05 470.5C395.71 467.88 396.77 466.2 397.17 463.5C394.94 461.41 393.42 461.08 390.5 461.79C389.33 458.9 389.35 459.23 386.51 458.09C382.7 456.55 382.89 456.96 380.5 460.21C379.5 459.07 378.5 457.93 377.5 456.79C376.49 458.11 377.51 457.96 376.31 459.02C375.19 460.02 373.96 458.98 372.76 459.41C372.09 459.65 372.12 460.59 371.4 460.91C370.5 461.3 369.68 460.75 368.78 461.16C368.13 461.45 368 462.39 367.37 462.75C365.86 463.59 364.14 463.61 362.5 464C361.77 461.91 361.88 464.75 361.51 462.47C360.9 458.74 362.95 459.18 360.5 455.21C359.95 455.88 358.95 456.45 358.76 457.36C358.54 458.39 359.28 459.49 359.37 460.5C359.64 463.95 358.17 467.27 359.3 470.5C357.57 470.47 355.85 469.83 354.47 469.84C353.35 469.85 352.75 470.79 351.63 470.85C351.55 470.85 350.37 470.04 350.26 470.02C349.7 469.95 349.03 470.47 348.5 470.44C347.23 470.37 346.54 469.37 345.36 469.14C344.35 468.95 343.48 469.6 342.58 469.46C341.64 469.31 341.61 468.37 340.47 468.47C339.02 468.6 340 469.4 338.5 469.39C337.39 469.38 336.62 468.4 335.53 468.48C332.6 468.7 328.94 472.91 325.5 473.86C324.96 472.72 324.53 470.76 323.86 469.75C323.2 468.75 316.88 463.51 315.5 462.21C314.82 463.08 313.66 464.31 313.29 465.34C313.23 465.53 313.66 466.25 313.37 466.49C312.55 467.17 311.75 466.17 310.92 466.42C309.58 466.82 310.58 466.8 309 467.5C311.25 470.16 309.97 469.53 309.95 472.51C309.95 473.1 310.58 473.46 310.69 474.01C311.28 476.94 310.44 479.06 309 481.5C310.17 482.63 311.33 483.75 312.5 484.88C313.85 484.25 315.19 482.63 316.53 482.35C319.47 481.73 325.19 486.26 329 486.5C330.6 483.8 329.45 483.05 328 480.5C329.17 479.45 330.33 478.4 331.5 477.36C332.16 478.27 333.38 481.13 334.44 481.48C335.8 481.93 336.79 480.5 338.25 481.22C338.28 481.23 340 484.94 340.5 485.64C343.55 483.49 343.08 482.53 346.79 482.5C347.36 483.67 347.93 484.83 348.5 486C349.95 485.88 351.36 485.18 352.61 485.05C353.76 484.94 354.31 486.19 355.5 485.41C355.9 485.14 356.04 484.5 356.5 484.36C357.5 485.79 358.5 487.21 359.5 488.64C361 488.26 362.5 487.88 364 487.5C367.07 490.29 369.08 490.09 369.14 494.5C372.5 495.5 375.86 496.5 379.21 497.5C378.54 501.99 380.08 499.85 381.51 502.62C382.05 503.66 381.22 504.3 381.55 505.4C382.41 508.28 384.58 505.32 381.32 509.5C386.5 513.69 384.45 511.26 385.58 516.5C387.79 517.17 390 517.83 392.21 518.5C391.95 523.51 389.86 529.7 384.89 531.81C382.7 529.59 381.24 525.78 379.39 522.96C375.51 517.02 370.47 510.97 364.86 506.59C338.57 486.06 307 490.14 276 484.89C276.5 484.22 277 483.55 277.5 482.88C273.32 481.71 275.99 481.4 274.33 480.38C273.56 479.91 272.29 480.42 271.44 480.03C270.61 479.65 270.79 478.77 270.16 478.47C269.12 477.97 266.93 477.77 265.79 477.5C265.91 475.88 264.79 472.54 262.55 472.19C261.28 471.99 260.34 473.69 258.82 472.74C257.81 472.12 259.01 472.4 258.14 471.5C258.61 469.36 256.99 471.6 258.01 469.67C258.31 469.1 260.25 468.86 261.68 466.5C258.95 465.82 262.03 465.54 259.54 465.46C256 465.33 257.1 472.04 251.5 467.32C249.61 471.39 245.1 471.5 241 470.5C240.8 467.06 241.18 465.75 243.68 463.5C239.7 462.71 239.83 462.44 236.5 460.32C233.33 461.27 231.23 460.7 228 460.5C225.98 455.44 224.79 457.74 224.5 451C222.06 451.33 221.74 450.98 219.5 449.95C218.5 452.2 217.5 454.44 216.5 456.68C213.49 456.17 212.48 456.95 210.5 458.86C204.98 453.4 206.28 451.11 211.78 446.5C211.14 443.88 210.41 442.73 208.5 441C207.77 441.61 206.14 444.01 205.93 444.1C205.29 444.37 204.23 443.45 203.5 443.52C201.51 443.72 199.03 446.7 197.72 443.31C197.34 442.33 197.66 440.2 197.5 439.07C196 439.51 197.1 438.21 195.82 439.06C195.17 439.49 195.26 440.89 195.22 441.52C194.96 445.46 199.13 447.87 202.21 449.5C200.95 452.39 199.25 451.88 198.34 453.95C197.85 455.06 198.1 455.93 197.71 457.03C197.28 458.23 195.84 458.69 195.41 459.74C194.95 460.88 194.77 462.98 194.5 464.21C190.88 461.48 191.1 459.47 188.5 464.3C188.44 462.03 188.38 459.77 188.32 457.5C190.81 456.83 193.3 456.17 195.79 455.5C196.7 450.9 194.12 451.98 193.92 450.22C193.83 449.41 195.27 449.04 195.44 448.25C196.04 445.56 195.09 449.34 195.5 445.83C191.18 447.34 189.96 450.53 187.5 454.21C185.53 451.21 184.99 448.23 185.41 444.5C185.41 444.49 185.84 442.47 185.84 442.46C185.8 442.33 183.72 440.04 183.36 439.5C187.41 437.32 186.19 435.01 188.5 433.64C191.41 433.49 192.93 433.98 195.7 432.5C194.56 430.86 196.43 432.11 194.96 430.78C193.46 429.42 189.18 430.38 187.5 430.79C186.28 427.78 185.37 426.39 182.79 424.5C185.93 422.5 189.07 420.5 192.21 418.5C189.05 417.02 186.17 417.41 183.5 414.86C183.52 413.25 182.36 415.26 182.86 413.7C183.06 413.08 184.04 412.97 184.3 412.36C185.35 409.85 182.95 406.51 181.5 404.7C179.94 404.99 173.21 404.94 171.97 403.45C171.35 402.7 171.82 401.57 171.6 400.74C171.23 399.34 170.23 398.17 169.5 396.95C167.58 399.16 170.31 397.59 168.37 399.11C167.01 400.17 163.17 399.18 162.48 397.64C162 396.55 163.06 395.72 162.72 394.76C162.32 393.63 162.2 395 161.5 394.14C156.51 396.02 155.28 404.7 157.71 409.34C160.2 414.11 163.39 413.35 165.5 409.36C165.85 410.82 165.79 412.91 166.26 414.31C166.52 415.08 167.44 414.88 167.68 415.58C168.1 416.84 167.8 419.08 168 420.5C167.66 420.55 164.71 420.45 164.63 420.5C163.59 421.12 164.34 422.35 163.78 423.24C163.28 424.04 162.28 424.02 161.73 424.74C161.33 425.26 161.53 426.11 161.16 426.68C160.33 427.96 158.63 428.61 157.34 429.5C157.43 432.79 156.49 435.47 160 436.5C158.3 439.24 157.65 440.4 158.68 443.5C157.67 444.75 158.01 444.73 156.17 445.05C156.06 440.7 155.94 436.35 155.83 432C155.83 427.67 155.83 423.33 155.83 419C155.89 416.83 155.94 414.67 156 412.5C155.59 412.28 155.18 412.06 154.78 411.83C154.7 407.22 154.62 402.61 154.55 398C155.62 392.07 155 385.57 155 379.5C155 368.17 155 356.83 155 345.5C155 338.83 155 332.17 155 325.5C155 324.38 155.69 318.89 154.48 318.41C154.1 318.25 153.85 318.96 153.64 319C153.62 304.84 153.61 290.69 153.59 276.53C161.06 277.19 168.53 277.84 176 278.5C176.17 278.01 176.35 277.53 176.52 277.04C177.85 276.79 179.17 276.54 180.5 276.28C180.72 276.59 180.94 276.9 181.17 277.21ZM275 484.84C274.66 485.06 274.32 485.28 273.97 485.5C273.9 486.67 273.82 487.83 273.74 489C273.4 488.83 273.05 488.67 272.71 488.5C272.81 485.86 272.89 485.45 274.5 483.72C274.67 484.09 274.83 484.47 275 484.84ZM351.13 627.25C349.48 627.86 347.83 628.48 346.18 629.09C346.28 628.73 346.39 628.36 346.5 628C348.04 627.75 349.59 627.5 351.13 627.25Z" fill="#166714" fill-rule="evenodd" stroke="#166714" stroke-width="0.25" stroke-linejoin="round"/>
<path d="M950.19 212C951.68 225.12 949.96 241.96 949.78 255.5C949.4 285.83 948.66 316.17 948.25 346.5C946.94 442.5 944.93 538.49 943.99 634.5C943.7 663.5 943.15 692.5 942.77 721.5C942.66 729.84 942.58 738.17 942.4 746.5C942.33 749.7 943.07 754.2 941.58 757.12C940.04 760.13 934.83 762.64 932.21 764.68C925.17 770.13 918.46 776.29 911 781.13C911.02 780.59 911.03 780.04 911.05 779.5C910.29 780.17 909.52 780.83 908.76 781.5C908.92 781.8 909.07 782.09 909.23 782.39C903.49 786.96 897.74 791.54 892 796.11C892.1 795.57 892.2 795.04 892.3 794.5C891.25 795.71 890.2 796.91 889.15 798.12C887.51 799.43 885.87 800.75 884.23 802.07C884.25 801.55 884.28 801.02 884.3 800.5C883.42 801.17 882.55 801.83 881.67 802.5C882.11 802.73 882.55 802.95 882.98 803.18C880.06 805.48 877.14 807.77 874.22 810.07C874.22 809.54 874.23 809.02 874.24 808.5C873.1 809.5 871.97 810.5 870.83 811.5C870.96 811.8 871.09 812.09 871.22 812.39C868.88 814.28 866.55 816.17 864.21 818.06C863.97 817.63 863.74 817.2 863.5 816.77C862.5 817.72 861.5 818.66 860.5 819.6C860.75 819.87 860.99 820.13 861.24 820.4C857.59 823.31 853.94 826.22 850.29 829.13C850.3 828.59 850.3 828.04 850.3 827.5C849.03 828.67 847.77 829.83 846.5 831C847 831.06 847.49 831.12 847.99 831.18C842.05 835.8 836.12 840.42 830.19 845.04C829.96 844.6 829.73 844.16 829.5 843.73C828.62 844.65 827.75 845.58 826.87 846.5C827 846.8 827.12 847.1 827.24 847.41C823.23 850.63 819.22 853.84 815.21 857.06C815.24 856.54 815.27 856.02 815.3 855.5C813.66 856.5 812.02 857.5 810.37 858.5C809.42 859.67 808.46 860.83 807.5 862C808 862.07 808.51 862.14 809.01 862.22C802.42 867.5 795.82 872.78 789.23 878.07C789.15 877.55 789.08 877.02 789 876.5C787.76 878.05 786.51 879.61 785.26 881.16C772.28 891.49 759.31 901.82 746.33 912.15C746.05 911.69 745.78 911.23 745.5 910.76C744.15 912.58 742.79 914.4 741.44 916.22C736.47 922.2 728.51 927.01 722.33 931.82C719.99 933.63 717.18 936.98 714.35 937.91C712.2 938.61 710.02 938.17 708 937.42C710.16 937.11 712.33 936.81 714.49 936.5C714.92 826.23 715.34 715.95 715.76 605.68C716.27 523.79 716.79 441.89 717.31 360C718.97 362.82 718.16 366.22 718.13 369.5C718.05 376.16 718.17 382.83 718.04 389.5C717.59 412.76 717.98 436.23 718.32 459.5C718.43 466.83 718.28 474.17 718.39 481.5C718.45 485.09 718.11 489.44 720.5 492C722.05 490.68 723.54 490.72 725.34 489.7C726.67 488.95 726.65 485.55 727.7 485.25C728.62 484.98 729.35 485.54 730.27 485.5C729.99 488.37 728.98 489.47 727 491.5C727.59 492.42 728.21 493.72 729.04 494.45C729.58 494.92 731.22 495.1 731.53 495.62C733.53 499.02 730.85 501.82 729.63 504.5C731.23 507.46 732.08 509.28 735.5 509.13C735.09 510.92 734.68 512.71 734.27 514.5C734.68 514.43 734.99 514.97 735.41 515.03C736.08 515.12 740.58 510.54 740.62 509.47C740.68 507.76 739.01 507.65 738.78 506.33C738.41 504.21 739.34 506.87 739.5 504.45C744.06 505.63 743.07 511.91 744.5 515.3C745.36 514.1 746.26 511.37 746.89 510.63C747.96 509.39 747.14 511.15 748.5 510.2C748.91 511.65 749.07 513.27 750.09 514.48C750.38 514.83 751.46 514.93 751.54 515.39C751.65 515.96 750.77 516.39 750.5 516.74C748.26 516.85 747.6 516.78 745.5 515.63C743.64 517.58 741.77 519.54 739.91 521.5C741.63 524.26 743.74 528.38 743.98 531.71C744.02 532.22 743.4 533.19 743.54 533.59C743.82 534.42 745.01 534.68 745.5 535.55C743.76 536.53 742.02 537.52 740.27 538.5C740.75 539.62 743.17 544.65 743.91 545.39C744.6 546.08 746.54 545.34 747.34 546.19C748.22 547.14 747.42 548.74 748.83 549.61C750.83 550.83 750.5 548.48 753.63 550.5C749.98 552.61 746.8 555.35 743.03 557.52C742.04 558.09 741.3 559.27 740.26 559.68C737.52 560.77 735.33 560.92 732.7 562.5C734.16 563.05 735.83 563.98 737.42 563.89C740.72 563.71 742.04 559.96 744.8 562.5C743.7 564.7 741.85 565.15 739.7 566.5C740.89 568.17 742.08 569.83 743.27 571.5C739.85 573.74 738.05 574.59 737.7 578.5C742.27 577.39 739.11 577.32 741.18 574.62C742.3 573.15 745.31 573.38 746.29 571.25C747.11 569.44 746.61 567.48 747.5 565.45C750.22 565.43 752.44 565.18 754.13 562.83C754.23 562.69 754.57 561.58 754.83 561.46C756.58 560.63 757.05 562.1 758.5 560.63C758.27 554.13 758.23 554.04 752.38 554.5C753.65 552.5 754.93 550.5 756.2 548.5C755.75 547.54 754.11 545.62 754.14 544.69C754.17 543.81 755.6 543.6 755.32 542.45C755.09 541.51 752.67 540.33 751.94 539.5C753.27 538.5 754.6 537.5 755.94 536.5C754.79 535.48 753.65 534.47 752.5 533.45C754.83 532.09 757.17 530.73 759.5 529.38C762.54 529.94 764.56 529.51 767.5 529.38C769.13 525.79 768.8 523.27 768.5 519.43C772.17 517.98 774.89 515.79 777.5 513.45C781.37 519.32 780.05 516.7 786.55 518.5C786.41 522.42 789.69 522.99 792.5 525.2C792.66 522.29 793.1 525.12 792.97 522.62C792.75 518.62 786.68 518.23 786.44 514.5C792.89 510.14 791.98 517.99 793.15 519.42C794.33 520.85 798.14 519 799.3 518.5C794.63 515.27 798.39 514.71 795.97 511.91C795.88 511.81 795.78 511.69 795.65 511.67C793.7 511.47 794.04 511.73 792.2 510.5C793.3 509.54 794.4 508.58 795.5 507.63C795.28 506.51 794.41 504.58 794.47 503.5C794.62 500.88 796.4 501.48 795.45 497.5C797.05 497.75 795.62 496.48 796.88 497.17C797.51 497.51 797.06 498.9 798.02 499.04C798.25 499.07 799.65 497.96 799.67 497.95C801.43 497.05 802.8 497.97 804.43 497.57C804.89 497.46 804.95 496.71 805.38 496.5C803.89 493.43 800.41 492.03 803.5 488.86C808.2 490.08 808.73 495.98 810.35 496.23C811.49 496.41 813.37 494.78 814 494.5C814.57 496.68 813.2 498.05 812.18 500.5C813.55 501.22 815.18 502.86 816.36 503.19C817.6 503.54 819.09 502.77 820.2 503.17C820.37 503.24 822.52 505 823.5 505.47C824.04 505.09 825.78 503.61 826.45 503.63C827.84 503.66 828.15 505.4 829.56 505.67C831.99 506.14 834.54 504.64 837.2 505.52C838.26 505.87 839.33 507.33 840.44 507.33C842.03 507.33 841.85 506 845 506.5C846.18 508.17 847.36 509.83 848.53 511.5C846.4 513.81 845.09 514.72 842.06 515.5C842.74 516.12 842.87 516.94 843.66 517.46C845.93 518.94 846.84 516.17 849.63 518.5C845.65 519.83 841.68 521.17 837.7 522.5C839.63 523.79 841.57 525.08 843.5 526.38C847.17 525.68 850.83 524.99 854.5 524.3C859.07 529.25 858.72 525.69 862.16 527.25C862.81 527.54 862.86 528.65 863.32 529.13C864.18 530.04 865.47 530.75 866.5 531.45C866.46 530.54 865.84 528.36 866.04 527.56C866.33 526.36 867.32 526.39 867.94 525.49C868.39 524.82 868.24 523.83 868.77 523.2C869.65 522.13 872.1 521.26 873.3 520.5C872.12 519.21 868.95 516.84 868.3 515.36C867.18 512.79 868.58 511.97 865.5 510.82C866.18 506.62 864.69 502.81 867.38 499.5C866.38 498.57 864.03 496.13 864.14 494.58C864.23 493.3 864.52 494.82 865 493.5C866.41 493.35 864.91 492.58 866.34 492.84C868.81 493.28 868.13 496.11 873.5 495C873.42 494.61 873.86 494.27 873.88 493.88C873.96 492.44 872.06 492.26 872.49 490.64C873.16 488.13 878.12 488.87 879.45 490.2C880.19 490.94 880.93 492.87 881.5 493.82C887.05 490.97 889.05 488.18 889.5 481.7C885.44 483.96 884.04 483.43 885.18 488.5C881.09 488.2 882.05 488.24 879.26 485.25C878.59 484.53 877.23 484.38 876.69 483.75C874.84 481.58 876.52 478.75 877.5 476.73C879.32 479.04 880.32 480.22 882.5 481.3C882.37 480.57 883 479.78 882.73 479.09C882.46 478.4 881.11 478.27 880.63 477.8C880.03 477.23 880 476.35 879.34 475.83C878.59 475.22 877.45 475.57 876.7 474.89C875.87 474.12 875.95 473.44 875.45 472.5C877.12 471.83 882.6 471.52 883.76 472.81C883.8 472.86 885.12 477.47 885.5 478.18C887.4 475.76 887.73 473.39 890.5 472C890.69 474.93 889.71 476.83 891.5 479.44C895.24 478.68 895.12 477.01 896.5 473.73C898.05 477.04 898.78 480 902 476.5C900.05 470.78 895.58 475.61 902 469.5C897.21 468.13 899.08 466.53 897.38 462.5C897.97 458.45 900.31 458.13 902.82 455.5C900.34 452.59 900.49 453.18 902.56 450.5C902.24 450.25 900.89 448.99 900.48 448.92C900.06 448.86 899.5 449.98 898.68 449.88C895.08 449.43 896.13 444.93 896.5 443C897.83 444 899.17 445 900.5 446C902.53 444 901.89 442.35 904.5 440.89C908.11 444.05 904.74 442.68 906.24 446.3C906.86 447.78 908.94 447.59 909.97 448.53C910.99 449.47 910.81 450.86 911.72 451.8C913.9 454.04 917.26 453.46 920 453.5C919.62 452.15 918.82 450.91 919.09 449.47C919.27 448.52 920.04 448.81 920.3 448.11C920.49 447.6 920.17 447.03 920.25 446.5C920.72 443.6 922.44 442.75 924.5 441.08C924.77 438.67 923.79 439.22 923.74 437.67C923.69 435.82 926.24 430.92 927.5 429.38C929.34 430.53 929.71 430.64 932 430.5C933.5 428.23 935 425.97 936.5 423.7C936.59 425.09 936.43 428.82 938.56 429.15C940.41 429.44 941.42 427.05 943.32 429.07C944.72 430.55 942.96 429.14 944.5 431.3C946.58 427.29 946 423.05 946 418.5C946 410.1 944.77 398.56 946.03 390.53C948.2 376.66 947 361.68 947 347.5C947 342.05 946.19 335.91 947.03 330.53C947.26 329.1 947.87 327.98 948 326.5C948.51 320.94 948 315.09 948 309.5C948 299.83 948 290.17 948 280.5C948 276.33 947.39 271.64 948.03 267.53C948.26 266.1 948.87 264.98 949 263.5C950.1 251.4 949 238.66 949 226.5C949 222.22 947.76 215.21 950.19 212ZM154.82 419C155.16 419 155.49 419 155.83 419C155.83 423.33 155.83 427.67 155.83 432C155.54 432 155.24 432 154.94 432C154.9 427.67 154.86 423.33 154.82 419ZM155.1 463C155.34 463 155.59 463 155.83 463C156.17 480 156.5 497 156.83 514C156.56 514.17 156.28 514.33 156 514.5C155.87 515.67 155.75 516.83 155.62 518C155.45 499.67 155.27 481.33 155.1 463ZM360.41 525.77C360.65 526.14 360.88 526.51 361.12 526.88C360.78 526.92 360.44 526.96 360.11 527C360.21 526.59 360.31 526.18 360.41 525.77ZM897.56 528.5C897.08 527.83 896.59 527.17 896.11 526.5C896.11 527.94 896.11 529.38 896.11 530.82C896.59 530.05 897.08 529.27 897.56 528.5ZM361.12 526.88C361.43 527.33 361.74 527.77 362.05 528.22C361.7 528.23 361.35 528.23 361 528.24C361.04 527.78 361.08 527.33 361.12 526.88ZM155.98 537C156.26 537 156.55 537 156.83 537C156.76 558.33 156.69 579.67 156.62 601C156.4 579.67 156.19 558.33 155.98 537ZM273.79 559C273.92 561 274.06 563 274.19 565C274.1 565.33 274.01 565.67 273.92 566C273.61 565.83 273.31 565.67 273 565.5C273 563.5 273 561.5 273 559.5C273.26 559.33 273.53 559.17 273.79 559ZM509 594.94C510 595.01 511 595.08 512 595.14C512.74 595.6 513.47 596.05 514.21 596.5C512.64 596.66 511.07 596.83 509.5 596.99C509.33 596.3 509.17 595.62 509 594.94ZM156.85 614C159.37 617.45 158 630.47 158 635.5C158 645.36 157.1 655.69 158.04 665.5C158.93 674.87 160.17 687.84 158.32 697C157.83 669.33 157.34 641.67 156.85 614ZM606.89 614C607.27 614.17 607.65 614.33 608.04 614.5C608.03 616.83 608.02 619.17 608.02 621.5C607.64 621.67 607.26 621.83 606.89 622C606.89 619.33 606.89 616.67 606.89 614ZM239.13 623C239.58 622.94 240.04 622.89 240.5 622.83C240.5 624.47 240.5 626.11 240.5 627.76C240.03 627.84 239.57 627.92 239.1 628C239.11 626.33 239.12 624.67 239.13 623ZM606.89 630C608.44 632.29 608.05 635.51 608.06 638.5C608.07 644.61 609.49 656.78 607.35 662C607.2 651.33 607.04 640.67 606.89 630ZM606.24 662C606.61 662 606.98 662 607.35 662C607.56 662.83 607.78 663.67 607.99 664.5C607.4 664.67 606.82 664.83 606.23 665C606.23 664 606.23 663 606.24 662ZM524.16 667C524.69 667.05 525.22 667.1 525.76 667.15C525.67 668.79 525.59 670.42 525.5 672.06C525.05 671.71 524.6 671.35 524.14 671C524.15 669.67 524.15 668.33 524.16 667ZM158.4 703C158.84 721.67 159.28 740.33 159.72 759C157.1 755.93 158.15 749.59 158.09 745.5C157.96 735.83 157.89 726.17 157.83 716.5C157.8 712.32 156.85 706.85 158.4 703ZM159.4 770C162.27 781.98 158.51 798.8 160.03 811.44C160.66 816.65 162.11 828.08 159.79 832.17C159.66 811.44 159.53 790.72 159.4 770ZM159.86 840C160.24 840.17 160.62 840.33 161 840.5C160.94 842.33 160.89 844.17 160.83 846C160.41 845.83 159.98 845.67 159.56 845.5C159.66 843.67 159.76 841.83 159.86 840ZM163 849.44C164.5 849.29 166 849.15 167.5 849C167.67 849.4 167.83 849.79 168 850.19C166.33 849.94 164.67 849.69 163 849.44ZM176 851.42C177.5 851.28 179 851.14 180.5 851C180.67 851.4 180.83 851.8 181 852.2C179.33 851.94 177.67 851.68 176 851.42ZM181.61 852.4C183.24 852.26 184.87 852.13 186.5 852C186.67 852.4 186.83 852.79 187 853.19C185.2 852.92 183.41 852.66 181.61 852.4ZM256 864.43C257.5 864.29 259 864.14 260.5 864C260.67 864.41 260.83 864.83 261 865.24C259.33 864.97 257.67 864.7 256 864.43ZM299 871.42C300.5 871.28 302 871.14 303.5 871C303.67 871.4 303.83 871.8 304 872.2C302.33 871.94 300.67 871.68 299 871.42ZM386 885.44C387.5 885.29 389 885.15 390.5 885C390.67 885.42 390.83 885.84 391 886.26C389.33 885.99 387.67 885.71 386 885.44ZM392 886.42C393.5 886.28 395 886.14 396.5 886C396.67 886.41 396.83 886.81 397 887.22C395.33 886.95 393.67 886.69 392 886.42ZM422.57 891.41C424.21 891.27 425.86 891.14 427.5 891C427.67 891.4 427.83 891.8 428 892.2C426.19 891.94 424.38 891.67 422.57 891.41ZM467 898.43C468.5 898.29 470 898.14 471.5 898C471.67 898.41 471.83 898.82 472 899.23C470.33 898.97 468.67 898.7 467 898.43ZM472.57 899.4C474.21 899.27 475.86 899.13 477.5 899C477.67 899.38 477.83 899.77 478 900.15C476.19 899.9 474.38 899.65 472.57 899.4ZM603 920.42C604.5 920.28 606 920.14 607.5 920C607.67 920.41 607.83 920.83 608 921.24C606.33 920.96 604.67 920.69 603 920.42ZM608.57 921.41C610.21 921.27 611.86 921.14 613.5 921C613.67 921.4 613.83 921.8 614 922.19C612.19 921.93 610.38 921.67 608.57 921.41Z" fill="#0b4909" fill-rule="evenodd" stroke="#0b4909" stroke-width="0.25" stroke-linejoin="round"/>
<path d="M947.24 204.46C947.99 204.41 948.75 204.36 949.5 204.31C949.73 206.87 949.96 209.44 950.19 212C947.76 215.21 949 222.22 949 226.5C949 238.66 950.1 251.4 949 263.5C948.87 264.98 948.26 266.1 948.03 267.53C947.39 271.64 948 276.33 948 280.5C948 290.17 948 299.83 948 309.5C948 315.09 948.51 320.94 948 326.5C947.87 327.98 947.26 329.1 947.03 330.53C946.19 335.91 947 342.05 947 347.5C947 361.68 948.2 376.66 946.03 390.53C944.77 398.56 946 410.1 946 418.5C946 423.05 946.58 427.29 944.5 431.3C942.96 429.14 944.72 430.55 943.32 429.07C941.42 427.05 940.41 429.44 938.56 429.15C936.43 428.82 936.59 425.09 936.5 423.7C935 425.97 933.5 428.23 932 430.5C929.71 430.64 929.34 430.53 927.5 429.38C926.24 430.92 923.69 435.82 923.74 437.67C923.79 439.22 924.77 438.67 924.5 441.08C922.44 442.75 920.72 443.6 920.25 446.5C920.17 447.03 920.49 447.6 920.3 448.11C920.04 448.81 919.27 448.52 919.09 449.47C918.82 450.91 919.62 452.15 920 453.5C917.26 453.46 913.9 454.04 911.72 451.8C910.81 450.86 910.99 449.47 909.97 448.53C908.94 447.59 906.86 447.78 906.24 446.3C904.74 442.68 908.11 444.05 904.5 440.89C901.89 442.35 902.53 444 900.5 446C899.17 445 897.83 444 896.5 443C896.13 444.93 895.08 449.43 898.68 449.88C899.5 449.98 900.06 448.86 900.48 448.92C900.89 448.99 902.24 450.25 902.56 450.5C900.49 453.18 900.34 452.59 902.82 455.5C900.31 458.13 897.97 458.45 897.38 462.5C899.08 466.53 897.21 468.13 902 469.5C895.58 475.61 900.05 470.78 902 476.5C898.78 480 898.05 477.04 896.5 473.73C895.12 477.01 895.24 478.68 891.5 479.44C889.71 476.83 890.69 474.93 890.5 472C887.73 473.39 887.4 475.76 885.5 478.18C885.12 477.47 883.8 472.86 883.76 472.81C882.6 471.52 877.12 471.83 875.45 472.5C875.95 473.44 875.87 474.12 876.7 474.89C877.45 475.57 878.59 475.22 879.34 475.83C880 476.35 880.03 477.23 880.63 477.8C881.11 478.27 882.46 478.4 882.73 479.09C883 479.78 882.37 480.57 882.5 481.3C880.32 480.22 879.32 479.04 877.5 476.73C876.52 478.75 874.84 481.58 876.69 483.75C877.23 484.38 878.59 484.53 879.26 485.25C882.05 488.24 881.09 488.2 885.18 488.5C884.04 483.43 885.44 483.96 889.5 481.7C889.05 488.18 887.05 490.97 881.5 493.82C880.93 492.87 880.19 490.94 879.45 490.2C878.12 488.87 873.16 488.13 872.49 490.64C872.06 492.26 873.96 492.44 873.88 493.88C873.86 494.27 873.42 494.61 873.5 495C868.13 496.11 868.81 493.28 866.34 492.84C864.91 492.58 866.41 493.35 865 493.5C864.52 494.82 864.23 493.3 864.14 494.58C864.03 496.13 866.38 498.57 867.38 499.5C864.69 502.81 866.18 506.62 865.5 510.82C868.58 511.97 867.18 512.79 868.3 515.36C868.95 516.84 872.12 519.21 873.3 520.5C872.1 521.26 869.65 522.13 868.77 523.2C868.24 523.83 868.39 524.82 867.94 525.49C867.32 526.39 866.33 526.36 866.04 527.56C865.84 528.36 866.46 530.54 866.5 531.45C865.47 530.75 864.18 530.04 863.32 529.13C862.86 528.65 862.81 527.54 862.16 527.25C858.72 525.69 859.07 529.25 854.5 524.3C850.83 524.99 847.17 525.68 843.5 526.38C841.57 525.08 839.63 523.79 837.7 522.5C841.68 521.17 845.65 519.83 849.63 518.5C846.84 516.17 845.93 518.94 843.66 517.46C842.87 516.94 842.74 516.12 842.06 515.5C845.09 514.72 846.4 513.81 848.53 511.5C847.36 509.83 846.18 508.17 845 506.5C841.85 506 842.03 507.33 840.44 507.33C839.33 507.33 838.26 505.87 837.2 505.52C834.54 504.64 831.99 506.14 829.56 505.67C828.15 505.4 827.84 503.66 826.45 503.63C825.78 503.61 824.04 505.09 823.5 505.47C822.52 505 820.37 503.24 820.2 503.17C819.09 502.77 817.6 503.54 816.36 503.19C815.18 502.86 813.55 501.22 812.18 500.5C813.2 498.05 814.57 496.68 814 494.5C813.37 494.78 811.49 496.41 810.35 496.23C808.73 495.98 808.2 490.08 803.5 488.86C800.41 492.03 803.89 493.43 805.38 496.5C804.95 496.71 804.89 497.46 804.43 497.57C802.8 497.97 801.43 497.05 799.67 497.95C799.65 497.96 798.25 499.07 798.02 499.04C797.06 498.9 797.51 497.51 796.88 497.17C795.62 496.48 797.05 497.75 795.45 497.5C796.4 501.48 794.62 500.88 794.47 503.5C794.41 504.58 795.28 506.51 795.5 507.63C794.4 508.58 793.3 509.54 792.2 510.5C794.04 511.73 793.7 511.47 795.65 511.67C795.78 511.69 795.88 511.81 795.97 511.91C798.39 514.71 794.63 515.27 799.3 518.5C798.14 519 794.33 520.85 793.15 519.42C791.98 517.99 792.89 510.14 786.44 514.5C786.68 518.23 792.75 518.62 792.97 522.62C793.1 525.12 792.66 522.29 792.5 525.2C789.69 522.99 786.41 522.42 786.55 518.5C780.05 516.7 781.37 519.32 777.5 513.45C774.89 515.79 772.17 517.98 768.5 519.43C768.8 523.27 769.13 525.79 767.5 529.38C764.56 529.51 762.54 529.94 759.5 529.38C757.17 530.73 754.83 532.09 752.5 533.45C753.65 534.47 754.79 535.48 755.94 536.5C754.6 537.5 753.27 538.5 751.94 539.5C752.67 540.33 755.09 541.51 755.32 542.45C755.6 543.6 754.17 543.81 754.14 544.69C754.11 545.62 755.75 547.54 756.2 548.5C754.93 550.5 753.65 552.5 752.38 554.5C758.23 554.04 758.27 554.13 758.5 560.63C757.05 562.1 756.58 560.63 754.83 561.46C754.57 561.58 754.23 562.69 754.13 562.83C752.44 565.18 750.22 565.43 747.5 565.45C746.61 567.48 747.11 569.44 746.29 571.25C745.31 573.38 742.3 573.15 741.18 574.62C739.11 577.32 742.27 577.39 737.7 578.5C738.05 574.59 739.85 573.74 743.27 571.5C742.08 569.83 740.89 568.17 739.7 566.5C741.85 565.15 743.7 564.7 744.8 562.5C742.04 559.96 740.72 563.71 737.42 563.89C735.83 563.98 734.16 563.05 732.7 562.5C735.33 560.92 737.52 560.77 740.26 559.68C741.3 559.27 742.04 558.09 743.03 557.52C746.8 555.35 749.98 552.61 753.63 550.5C750.5 548.48 750.83 550.83 748.83 549.61C747.42 548.74 748.22 547.14 747.34 546.19C746.54 545.34 744.6 546.08 743.91 545.39C743.17 544.65 740.75 539.62 740.27 538.5C742.02 537.52 743.76 536.53 745.5 535.55C745.01 534.68 743.82 534.42 743.54 533.59C743.4 533.19 744.02 532.22 743.98 531.71C743.74 528.38 741.63 524.26 739.91 521.5C741.77 519.54 743.64 517.58 745.5 515.63C747.6 516.78 748.26 516.85 750.5 516.74C750.77 516.39 751.65 515.96 751.54 515.39C751.46 514.93 750.38 514.83 750.09 514.48C749.07 513.27 748.91 511.65 748.5 510.2C747.14 511.15 747.96 509.39 746.89 510.63C746.26 511.37 745.36 514.1 744.5 515.3C743.07 511.91 744.06 505.63 739.5 504.45C739.34 506.87 738.41 504.21 738.78 506.33C739.01 507.65 740.68 507.76 740.62 509.47C740.58 510.54 736.08 515.12 735.41 515.03C734.99 514.97 734.68 514.43 734.27 514.5C734.68 512.71 735.09 510.92 735.5 509.13C732.08 509.28 731.23 507.46 729.63 504.5C730.85 501.82 733.53 499.02 731.53 495.62C731.22 495.1 729.58 494.92 729.04 494.45C728.21 493.72 727.59 492.42 727 491.5C728.98 489.47 729.99 488.37 730.27 485.5C729.35 485.54 728.62 484.98 727.7 485.25C726.65 485.55 726.67 488.95 725.34 489.7C723.54 490.72 722.05 490.68 720.5 492C718.11 489.44 718.45 485.09 718.39 481.5C718.28 474.17 718.43 466.83 718.32 459.5C717.98 436.23 717.59 412.76 718.04 389.5C718.17 382.83 718.05 376.16 718.13 369.5C718.16 366.22 718.97 362.82 717.31 360C717.16 350.35 717.02 340.7 716.88 331.04C720.26 326.69 727 324.62 731.92 321.99C745.46 314.77 758.62 306.83 772.31 299.85C792.69 289.47 812.55 278.01 832.62 267.16C853.43 255.91 874.44 245.03 895.12 233.55C907.58 226.64 920.31 220.21 932.78 213.29C937.18 210.85 944.78 208.61 947.24 204.46ZM154.55 398C154.25 371.67 153.95 345.33 153.64 319C153.85 318.96 154.1 318.25 154.48 318.41C155.69 318.89 155 324.38 155 325.5C155 332.17 155 338.83 155 345.5C155 356.83 155 368.17 155 379.5C155 385.57 155.62 392.07 154.55 398ZM154.78 411.83C155.18 412.06 155.59 412.28 156 412.5C155.94 414.67 155.89 416.83 155.83 419C155.49 419 155.16 419 154.82 419C154.8 416.61 154.79 414.22 154.78 411.83ZM154.94 432C155.24 432 155.54 432 155.83 432C155.94 436.35 156.06 440.7 156.17 445.05C156.06 451.04 155.94 457.02 155.83 463C155.59 463 155.34 463 155.1 463C155.04 452.67 154.99 442.33 154.94 432ZM539.98 513C539.91 515 539.83 517 539.76 519C539.5 518.83 539.25 518.67 539 518.5C539 516.83 539 515.17 539 513.5C539.33 513.33 539.65 513.17 539.98 513ZM156.83 514C156.83 521.67 156.83 529.33 156.83 537C156.55 537 156.26 537 155.98 537C155.86 530.67 155.74 524.33 155.62 518C155.75 516.83 155.87 515.67 156 514.5C156.28 514.33 156.56 514.17 156.83 514ZM429.74 515C429.87 542 429.99 569 430.11 596C430.12 600 430.12 604 430.13 608C430.28 616.33 430.43 624.67 430.58 633C430.34 633.17 430.11 633.33 429.87 633.5C429.93 636.67 429.98 639.83 430.03 643C429.93 644.5 429.83 646 429.72 647.5C429.96 647.67 430.19 647.83 430.43 648C430.31 650 430.2 652 430.08 654C429.94 655.33 429.79 656.67 429.65 658C427.42 656.54 428.05 653.1 428.15 650.5C428.27 647.48 429.14 644.48 429 641.5C428.87 638.63 428.08 635.92 428.34 632.97C428.42 632.1 428.94 631.44 428.94 630.5C428.94 629.54 428.43 628.89 428.34 628.01C427.83 623.02 428.28 617.54 428.24 612.5C428.06 590.51 428.27 568.5 428.29 546.5C428.3 538.83 428.46 531.17 428.43 523.5C428.42 520.63 427.16 516.24 429.74 515ZM655.14 532C655.17 529.53 655.2 527.07 655.24 524.6C655.33 524.4 655.41 524.2 655.5 524C656 525.5 656.5 527 657 528.5C656.67 529.5 656.33 530.5 656 531.5C655.71 531.67 655.42 531.83 655.14 532ZM897.56 528.5C897.08 529.27 896.59 530.05 896.11 530.82C896.11 529.38 896.11 527.94 896.11 526.5C896.59 527.17 897.08 527.83 897.56 528.5ZM360.11 527C360.44 526.96 360.78 526.92 361.12 526.88C361.08 527.33 361.04 527.78 361 528.24C360.7 527.82 360.4 527.41 360.11 527ZM655.13 533C657.22 534.79 656.85 537.4 656.34 539.83C655.93 539.89 655.52 539.94 655.1 540C655 539.67 654.9 539.33 654.8 539C654.91 537 655.02 535 655.13 533ZM291.96 556C293.72 558.67 293.7 572.84 292.28 576C292.11 571 291.93 566 291.76 561C291.82 559.33 291.89 557.67 291.96 556ZM273.95 571C273.97 574 273.98 577 274 580C273.67 579.83 273.33 579.67 273 579.5C273 576.83 273 574.17 273 571.5C273.32 571.33 273.63 571.17 273.95 571ZM509 577.9C507.94 577.69 506.89 577.48 505.83 577.27C507.54 576.32 506.88 576.57 509.25 576.5C509.16 576.97 509.08 577.44 509 577.9ZM292.58 586C292.89 598.75 293.19 611.5 293.5 624.26C293.07 624.5 292.63 624.75 292.2 625C292.11 612.33 292.02 599.67 291.92 587C292.14 586.67 292.36 586.33 292.58 586ZM452 588.26C450.03 590.17 449.88 591.41 449.5 594.15C449.07 593.77 448.64 593.38 448.21 593C448.18 591.5 448.15 590 448.12 588.5C449.41 588.42 450.71 588.34 452 588.26ZM475 591.01C476.72 591.25 478.44 591.5 480.17 591.74C479.94 592.17 479.72 592.6 479.5 593.03C478.5 593.02 477.5 593.01 476.5 593C476 592.34 475.5 591.67 475 591.01ZM370.94 601C370.33 602.68 369.72 604.37 369.11 606.05C368.9 605.87 368.69 605.68 368.47 605.5C368.82 603.91 369.16 602.31 369.5 600.72C369.98 600.81 370.46 600.91 370.94 601ZM606.89 614C606.89 616.67 606.89 619.33 606.89 622C606.64 621.83 606.4 621.67 606.15 621.5C606.16 619.17 606.16 616.83 606.16 614.5C606.4 614.33 606.65 614.17 606.89 614ZM339 630.78C337.33 630.84 335.67 630.91 334 630.97C334.17 630.65 334.33 630.32 334.5 630C335.83 629.69 337.17 629.38 338.5 629.07C338.67 629.64 338.83 630.21 339 630.78ZM606.89 630C607.04 640.67 607.2 651.33 607.35 662C606.98 662 606.61 662 606.24 662C606.45 651.33 606.67 640.67 606.89 630ZM275.17 641.95C277.38 642.24 279.59 642.52 281.8 642.81C281.36 643.18 280.93 643.54 280.5 643.91C279.17 643.94 277.83 643.97 276.5 644C276.06 643.32 275.61 642.63 275.17 641.95ZM299 644.96C300.72 645.23 302.44 645.49 304.17 645.75C303.94 646.11 303.72 646.46 303.5 646.81C302.5 646.87 301.5 646.94 300.5 647C300 646.32 299.5 645.64 299 644.96ZM524.13 661C524.75 661.5 525.38 662 526 662.5C525.92 664.05 525.84 665.6 525.76 667.15C525.22 667.1 524.69 667.05 524.16 667C524.04 666.67 523.91 666.33 523.79 666C523.9 664.33 524.02 662.67 524.13 661ZM470 666.01C471.53 666.26 473.07 666.51 474.6 666.76C473.57 667.17 472.53 667.59 471.5 668C471 667.34 470.5 666.67 470 666.01ZM606.2 669C606.86 669.17 607.52 669.33 608.18 669.5C608.14 673.17 608.11 676.83 608.07 680.5C607.44 680.67 606.8 680.83 606.17 681C606.18 677 606.19 673 606.2 669ZM911 781.13C910.41 781.55 909.82 781.97 909.23 782.39C909.07 782.09 908.92 781.8 908.76 781.5C909.52 780.83 910.29 780.17 911.05 779.5C911.03 780.04 911.02 780.59 911 781.13ZM892 796.11C891.05 796.78 890.1 797.45 889.15 798.12C890.2 796.91 891.25 795.71 892.3 794.5C892.2 795.04 892.1 795.57 892 796.11ZM884.23 802.07C883.81 802.44 883.4 802.81 882.98 803.18C882.55 802.95 882.11 802.73 881.67 802.5C882.55 801.83 883.42 801.17 884.3 800.5C884.28 801.02 884.25 801.55 884.23 802.07ZM874.22 810.07C873.22 810.84 872.22 811.61 871.22 812.39C871.09 812.09 870.96 811.8 870.83 811.5C871.97 810.5 873.1 809.5 874.24 808.5C874.23 809.02 874.22 809.54 874.22 810.07ZM864.21 818.06C863.22 818.84 862.23 819.62 861.24 820.4C860.99 820.13 860.75 819.87 860.5 819.6C861.5 818.66 862.5 817.72 863.5 816.77C863.74 817.2 863.97 817.63 864.21 818.06ZM850.29 829.13C849.52 829.81 848.76 830.5 847.99 831.18C847.49 831.12 847 831.06 846.5 831C847.77 829.83 849.03 828.67 850.3 827.5C850.3 828.04 850.3 828.59 850.29 829.13ZM830.19 845.04C829.21 845.83 828.23 846.62 827.24 847.41C827.12 847.1 827 846.8 826.87 846.5C827.75 845.58 828.62 844.65 829.5 843.73C829.73 844.16 829.96 844.6 830.19 845.04ZM815.21 857.06C813.14 858.78 811.08 860.5 809.01 862.22C808.51 862.14 808 862.07 807.5 862C808.46 860.83 809.42 859.67 810.37 858.5C812.02 857.5 813.66 856.5 815.3 855.5C815.27 856.02 815.24 856.54 815.21 857.06ZM789.23 878.07C787.9 879.1 786.58 880.13 785.26 881.16C786.51 879.61 787.76 878.05 789 876.5C789.08 877.02 789.15 877.55 789.23 878.07ZM746.33 912.15C744.7 913.51 743.07 914.86 741.44 916.22C742.79 914.4 744.15 912.58 745.5 910.76C745.78 911.23 746.05 911.69 746.33 912.15Z" fill="#0f500d" fill-rule="evenodd" stroke="#0f500d" stroke-width="0.25" stroke-linejoin="round"/>
<path d="M704.23 183.68C709.35 182.5 718.39 184.63 724 185.08C735.02 185.96 746.04 186.63 757 188.08C761.79 188.72 772.73 188.01 776 190.5C773.52 191.43 772.4 193.52 770 194.56C767.62 195.58 765.78 194.71 763.53 194.93C758.97 195.37 761.06 198.95 755.5 195.08C753.74 197.8 751.82 199.08 748.98 200.5C749.55 201.67 750.33 201.16 750.56 202.49C750.72 203.37 746.81 206.59 746 207.5C741.41 208.51 742.11 208.25 738.5 211.3C732.65 208.48 732.47 209.07 729.5 214.88C723.84 210.23 727.89 215.8 724.45 215.44C723.09 215.3 723.75 214.59 722.5 214.07C721.61 216.47 717.35 223.93 715.27 225.46C714.66 225.91 712.32 226.47 712.02 226.94C711.85 227.22 713.43 230.11 713.61 230.5C707.33 230.63 710.11 231.8 706.47 233.39C705.67 233.74 704.74 233.08 703.9 233.43C703.72 233.5 700.77 235.44 700.52 235.63C698.09 237.4 697.92 239.17 694.5 239.28C694.46 241.37 694.34 244.68 692.9 246.38C689.95 249.86 685.81 248.1 685.59 253.5C681.55 253.73 679.95 254.59 677.5 257.71C675.12 257.98 672.74 258.24 670.36 258.5C669.97 263.05 661.41 267.36 658.5 270.98C657.62 270.62 656.74 269.95 655.74 270.18C654.82 270.39 654.11 271.6 653.3 272.05C651.93 272.81 649.8 273.06 648.6 273.99C648.06 274.41 647.27 276.19 646.55 276.22C644.89 276.28 645.39 274.76 644.35 274.05C643.83 273.69 643.07 273.93 642.5 273.68C640.71 275.53 635.95 280.97 632.7 278.88C631.4 278.04 632.64 278.19 631.5 277.05C629.83 278.72 628.17 280.39 626.5 282.06C624.35 279.09 622.76 278.23 619.63 280.57C619 281.03 618.91 282.01 618.26 282.37C616.64 283.26 615.15 283.1 613.19 284.5C618.04 288.01 616.08 286.86 613.5 288.58C612.38 289.32 611.71 290.17 610.5 290.89C610.1 287.54 609.44 286.61 606.88 284.5C603.75 283.97 600.63 283.44 597.5 282.91C596.61 286.9 594.04 289.06 591.5 292.12C585.93 288.32 589.83 290.58 586.51 291.12C585.54 291.28 584.19 289.77 583.36 290.88C582.26 292.37 582.97 293.32 581.5 294.67C578.26 291.96 581.44 290.45 578.5 291.76C576.2 294.55 575.17 296.95 575.82 300.5C573.03 300.31 570.94 300.35 568.5 299.23C568.31 301.98 568.96 303.97 567.5 306.23C567.2 305.83 566.5 305.82 566.26 305.38C565.73 304.39 566.51 303.26 565.24 302.44C564.03 301.66 556.04 303.3 554.73 304.24C554.09 304.7 554 305.68 553.22 305.97C552.56 306.21 551.13 305.66 550.43 305.5C549.78 310.97 542.39 308.24 543 313.89C510 310.62 477 307.35 444 304.08C444.03 303.55 444.07 303.03 444.1 302.5C442.23 302.28 440.37 302.07 438.5 301.85C438.39 302.33 438.28 302.8 438.17 303.28C437.94 303.5 437.72 303.72 437.5 303.93C436.33 303.65 435.17 303.37 434 303.09C433.83 302.39 433.67 301.7 433.5 301C431.67 301.17 429.83 301.33 428 301.5C428 301.94 428 302.37 428 302.81C427.33 302.71 426.67 302.61 426 302.51C425.83 301.86 425.67 301.22 425.5 300.57C422.5 300.28 419.5 299.99 416.5 299.71C416.06 300.11 415.62 300.51 415.18 300.91C404.12 300.04 393.06 299.17 382 298.3C382.82 297.13 381.54 297.46 382.72 296.48C383.86 295.54 388.36 296.63 390 296.5C389.13 291.8 387.58 294.57 386.41 292.35C386.04 291.65 387.07 290.22 387.07 289.47C387.06 288.39 386.66 287.55 386.44 286.5C391.84 286.04 396.95 282.54 390.5 278.11C389.5 279.38 388.5 280.65 387.5 281.92C385.7 279.56 385.3 278.25 385.53 275.5C385.18 275.55 383.4 275.58 383.11 275.86C382.62 276.33 383.11 277.51 382.76 278.15C381.78 279.92 381.32 279.59 380.5 281.85C378.17 281.58 378.66 280.17 377.51 279.89C375.77 279.47 377.25 280.5 375.5 280.53C374.81 280.54 374.19 279.97 373.5 279.97C372.5 281.29 371.5 282.61 370.5 283.94C367.9 283.12 365.3 282.31 362.7 281.5C363.33 280.71 364.63 280.01 364.38 278.76C364.28 278.26 361.11 276.64 360.45 276.06C358.93 274.7 356.92 273.29 355.63 271.8C354.79 270.84 354.81 269.52 353.86 268.63C353.24 268.06 352.27 268.07 351.66 267.49C351.03 266.89 350.79 264.9 350.25 264.62C349.99 264.48 347.79 265.69 347.5 265.82C347.37 262.21 344.25 262.33 341.5 262.68C339.31 261.2 339.39 259.85 339.23 259.72C338.41 259.07 337.51 259.7 336.65 259.16C335.92 258.7 336 257.61 335.29 257.23C334.42 256.77 333.43 257.4 332.65 257.04C330.99 256.29 330.95 254.99 327.5 254C325.98 251.63 325.38 250.85 322.61 250.5C324.28 248.27 324.08 247.99 322.87 245.5C319.36 242.68 313.86 240.28 309.5 239.84C307.02 237.15 305.39 236.02 302.03 234.5C302.72 232.33 303 234.6 303.18 232.52C303.34 230.74 301.3 231.82 300.75 231.19C300.11 230.46 299.72 228.48 299.5 227.84C298.35 227.5 296.68 226.77 295.5 226.64C294.07 226.49 292.97 227.21 291.44 226.89C290.15 226.62 289.72 225.43 288.46 225.11C284.7 224.14 285.08 226.45 281.44 223.76C285.45 221.2 290.46 219.59 295 217.93C301.39 215.6 307.64 212.54 314 210.09C318.83 208.22 324.02 204.81 328.96 204.61C331.37 206.47 332.64 205.02 335.5 205.44C336.47 205.58 336.93 206.34 337.8 206.59C339.49 207.07 341.73 206.75 343.25 207.85C345.77 209.68 345.53 209.89 349.04 210.5C349.19 212.17 349.35 213.83 349.5 215.5C351.47 215.6 352.95 214.4 355.02 215.32C358.26 216.78 362.72 221.49 364.5 224.29C366.17 222.91 367.83 221.53 369.5 220.15C372.43 222.26 375.54 224.43 379.5 224.31C381.17 226.8 382.27 227.88 384.87 229.5C384.03 234.48 385.79 231.89 387.5 235.69C389.3 235.23 390.33 233.41 391.43 233.48C392.88 233.58 392.71 235.28 393.73 235.73C395.11 236.33 399.05 235 399.61 237.45C399.65 237.64 398.26 239.96 398.09 240.5C399.74 240.3 401.83 239.56 403.49 239.76C403.65 239.78 413.21 243.9 413.38 244.01C414.57 244.82 415.52 246.22 416.5 247.23C419.36 245.41 421.25 244.76 424.4 246.76C425.27 247.31 425.01 248.5 426.5 248.68C427.98 248.85 430.04 247.91 431.5 247.5C434.48 253 438.81 250.46 441.28 253.15C442.19 254.13 442.01 254.79 443.5 256.22C445.69 255.44 448.1 255.12 450.04 254.44C453.47 253.24 453.23 249.92 458.5 248.86C462.32 251.55 460.78 250.02 464.42 250.01C465.14 250.01 465.6 250.83 466.47 250.78C467.19 250.74 467.72 249.72 468.44 249.78C470.71 249.98 470.22 251.36 472.42 250.5C474.11 249.65 475.81 248.81 477.5 247.96C478.41 249.05 481.67 251.93 480.5 253.53C479.92 254.32 478.11 253.15 476.18 255.5C477.75 256.5 479.33 257.5 480.9 258.5C482.43 256.92 483.97 255.34 485.5 253.76C487.89 254.64 488.57 255.76 491.5 255.91C493.17 254.75 494.83 253.58 496.5 252.42C499.85 253.45 501.43 252.9 503.5 256.04C508.52 254.65 508.82 257.54 512.55 258.08C513.34 258.19 513.75 257.52 514.5 257.49C515.61 257.45 515.85 258.07 516.81 258.26C521.37 259.15 520.1 256.37 525.5 259.3C527.55 257.22 528.99 257.16 531.5 256C532.41 255.18 532.74 254.15 533.56 253.34C534.83 252.09 537.11 251.29 538.5 250.27C540.33 250.73 542.6 252.26 544.48 252.24C545.57 252.23 546.4 251.34 547.5 251.28C548.38 251.23 548.65 251.81 549.5 251.89C552.54 252.2 552.09 251.01 555.5 252.73C555.55 251.77 555.33 249.57 555.9 248.75C557.3 246.76 566.37 247.51 568.5 247.71C570.52 245.12 571.86 243.19 572.5 239.98C575.09 241.96 577.41 245.15 580.5 245.94C580.85 245.37 582.11 242.79 582.65 242.56C582.68 242.54 590.79 244.46 592.76 244.5C593.68 240.66 595.03 242.71 597.54 241.34C598.62 240.75 599.67 238.62 600.5 237.66C601.17 238.21 601.62 239.14 602.55 239.34C603.94 239.63 609.73 236.4 610.33 234.96C610.95 233.45 610.88 231.16 611.5 229.28C614.06 229.63 617.87 229.25 620.65 228.25C621.95 227.78 625.11 225.43 626.34 225.74C627.44 226.03 627.97 227.69 628.5 228.5C630.41 225.54 633.03 223.39 636.5 222.5C636.84 223.05 636.92 223.93 637.53 224.15C638.33 224.43 638.92 223.22 639.51 222.97C642.31 221.79 644.97 222.26 647.82 221.5C650.96 218.68 650.53 214.87 653.44 212.5C655.65 212.59 656.51 212.67 658.61 211.5C660.2 208.76 659.75 205.32 662.75 203.37C668.6 199.56 669.4 205.98 673.5 199.88C674.6 203.25 675.96 204.59 678.5 207C681.69 201.05 683.47 203.05 687.5 199.07C687.42 197.22 687.34 195.36 687.25 193.5C691.51 190.65 692.31 193.59 694.5 188.7C697.17 188.57 699.83 188.43 702.5 188.3C703.08 186.76 703.66 185.22 704.23 183.68Z" fill="#5ea557" fill-rule="evenodd" stroke="#5ea557" stroke-width="0.25" stroke-linejoin="round"/>
<path d="M776 190.5C782.5 188.61 795.68 191.61 803 192.09C814.34 192.83 825.66 194.34 837 195.1C840.89 195.36 844.46 195.26 848.26 196.34C847.89 197.41 848.5 197.96 847.44 198.7C846.21 199.57 842.93 198.9 841.5 198.89C839.62 198.87 838.29 198.45 836.47 198.27C832.42 197.88 829.32 199.23 825.5 197.41C824.19 197.63 822.72 198.38 821.5 198.45C817.68 198.67 818.91 197.36 814.7 199.5C814.49 201.51 814.95 205.6 811.5 205.76C810.81 205.79 810.23 205.03 809.55 205.08C809.09 205.12 808.94 205.85 808.5 206C808.66 206.77 809.76 208.68 809.7 209.48C809.46 212.77 806.65 211.76 804.81 212.06C804.23 212.16 803.98 212.96 803.43 213.16C801.1 214 797.93 213.37 795.48 213.5C794.01 215.67 792.99 214.75 790.81 215.62C788.94 216.36 786.61 218.99 785.23 220.5C785.92 220.6 786.64 220.1 787.3 220.31C792.9 222.1 785 227.58 783.39 228.5C783.49 229.05 784.07 229.83 784.07 230.43C784.08 231.14 782.02 233.89 781.31 233.89C781.01 233.89 780.78 233.38 780.5 233.49C780.42 235.02 780.7 236.96 780.28 238.41C779.75 240.26 776.4 243.48 774.45 243.41C773.57 243.38 772.18 241.96 771.5 241.48C769.99 243.02 768.18 245.94 766.23 246.86C765.44 247.23 764.71 246.63 763.79 247.13C763.23 247.45 763.03 248.47 762.53 248.91C759.81 251.35 758.17 251.38 754.87 250.5C754.82 251.2 755.03 252.41 754.56 253C753.8 253.93 747.68 257.04 746.44 257.5C747.09 260.17 747.74 262.83 748.39 265.5C746.84 267 744.93 267.36 743.74 268.5C743.2 269 743.3 269.87 742.87 270.44C741.76 271.88 739.77 272.98 738.5 274.32C735.87 273.95 735.27 273.66 733.5 271.78C732.69 272.31 725.99 276.15 725.44 275.85C725.06 275.64 724.93 275.03 724.5 274.95C723.32 278.19 723.04 281.52 719.5 283.28C717.83 283.88 716.63 283.5 714.78 283.5C713.24 285.94 712.47 285.5 710.5 287.72C706.39 286.55 707.38 286.76 703.55 287.39C702.7 287.53 701.31 286.99 700.55 287.38C698.07 288.66 698.58 290.19 695.5 289.78C695.15 290.31 693.92 292.47 693.44 292.77C692.95 293.07 691.22 292.88 690.55 293.06C687.39 293.91 686.64 296.09 684.43 298.08C684.08 298.4 681.41 299.64 681.77 300.37C682.02 300.85 682.6 301.07 682.92 301.5C677.29 303.07 677.75 307.94 673.5 311.62C671.42 311.25 669.34 310.87 667.26 310.5C664.63 313.95 667.7 319.05 659.5 314.82C659.42 316.05 660.52 319.47 660.02 320.26C657.99 323.45 655.32 318.78 655 324.84C617.67 321.19 580.33 317.54 543 313.89C542.39 308.24 549.78 310.97 550.43 305.5C551.13 305.66 552.56 306.21 553.22 305.97C554 305.68 554.09 304.7 554.73 304.24C556.04 303.3 564.03 301.66 565.24 302.44C566.51 303.26 565.73 304.39 566.26 305.38C566.5 305.82 567.2 305.83 567.5 306.23C568.96 303.97 568.31 301.98 568.5 299.23C570.94 300.35 573.03 300.31 575.82 300.5C575.17 296.95 576.2 294.55 578.5 291.76C581.44 290.45 578.26 291.96 581.5 294.67C582.97 293.32 582.26 292.37 583.36 290.88C584.19 289.77 585.54 291.28 586.51 291.12C589.83 290.58 585.93 288.32 591.5 292.12C594.04 289.06 596.61 286.9 597.5 282.91C600.63 283.44 603.75 283.97 606.88 284.5C609.44 286.61 610.1 287.54 610.5 290.89C611.71 290.17 612.38 289.32 613.5 288.58C616.08 286.86 618.04 288.01 613.19 284.5C615.15 283.1 616.64 283.26 618.26 282.37C618.91 282.01 619 281.03 619.63 280.57C622.76 278.23 624.35 279.09 626.5 282.06C628.17 280.39 629.83 278.72 631.5 277.05C632.64 278.19 631.4 278.04 632.7 278.88C635.95 280.97 640.71 275.53 642.5 273.68C643.07 273.93 643.83 273.69 644.35 274.05C645.39 274.76 644.89 276.28 646.55 276.22C647.27 276.19 648.06 274.41 648.6 273.99C649.8 273.06 651.93 272.81 653.3 272.05C654.11 271.6 654.82 270.39 655.74 270.18C656.74 269.95 657.62 270.62 658.5 270.98C661.41 267.36 669.97 263.05 670.36 258.5C672.74 258.24 675.12 257.98 677.5 257.71C679.95 254.59 681.55 253.73 685.59 253.5C685.81 248.1 689.95 249.86 692.9 246.38C694.34 244.68 694.46 241.37 694.5 239.28C697.92 239.17 698.09 237.4 700.52 235.63C700.77 235.44 703.72 233.5 703.9 233.43C704.74 233.08 705.67 233.74 706.47 233.39C710.11 231.8 707.33 230.63 713.61 230.5C713.43 230.11 711.85 227.22 712.02 226.94C712.32 226.47 714.66 225.91 715.27 225.46C717.35 223.93 721.61 216.47 722.5 214.07C723.75 214.59 723.09 215.3 724.45 215.44C727.89 215.8 723.84 210.23 729.5 214.88C732.47 209.07 732.65 208.48 738.5 211.3C742.11 208.25 741.41 208.51 746 207.5C746.81 206.59 750.72 203.37 750.56 202.49C750.33 201.16 749.55 201.67 748.98 200.5C751.82 199.08 753.74 197.8 755.5 195.08C761.06 198.95 758.97 195.37 763.53 194.93C765.78 194.71 767.62 195.58 770 194.56C772.4 193.52 773.52 191.43 776 190.5ZM281.44 223.76C285.08 226.45 284.7 224.14 288.46 225.11C289.72 225.43 290.15 226.62 291.44 226.89C292.97 227.21 294.07 226.49 295.5 226.64C296.68 226.77 298.35 227.5 299.5 227.84C299.72 228.48 300.11 230.46 300.75 231.19C301.3 231.82 303.34 230.74 303.18 232.52C303 234.6 302.72 232.33 302.03 234.5C305.39 236.02 307.02 237.15 309.5 239.84C313.86 240.28 319.36 242.68 322.87 245.5C324.08 247.99 324.28 248.27 322.61 250.5C325.38 250.85 325.98 251.63 327.5 254C330.95 254.99 330.99 256.29 332.65 257.04C333.43 257.4 334.42 256.77 335.29 257.23C336 257.61 335.92 258.7 336.65 259.16C337.51 259.7 338.41 259.07 339.23 259.72C339.39 259.85 339.31 261.2 341.5 262.68C344.25 262.33 347.37 262.21 347.5 265.82C347.79 265.69 349.99 264.48 350.25 264.62C350.79 264.9 351.03 266.89 351.66 267.49C352.27 268.07 353.24 268.06 353.86 268.63C354.81 269.52 354.79 270.84 355.63 271.8C356.92 273.29 358.93 274.7 360.45 276.06C361.11 276.64 364.28 278.26 364.38 278.76C364.63 280.01 363.33 280.71 362.7 281.5C365.3 282.31 367.9 283.12 370.5 283.94C371.5 282.61 372.5 281.29 373.5 279.97C374.19 279.97 374.81 280.54 375.5 280.53C377.25 280.5 375.77 279.47 377.51 279.89C378.66 280.17 378.17 281.58 380.5 281.85C381.32 279.59 381.78 279.92 382.76 278.15C383.11 277.51 382.62 276.33 383.11 275.86C383.4 275.58 385.18 275.55 385.53 275.5C385.3 278.25 385.7 279.56 387.5 281.92C388.5 280.65 389.5 279.38 390.5 278.11C396.95 282.54 391.84 286.04 386.44 286.5C386.66 287.55 387.06 288.39 387.07 289.47C387.07 290.22 386.04 291.65 386.41 292.35C387.58 294.57 389.13 291.8 390 296.5C388.36 296.63 383.86 295.54 382.72 296.48C381.54 297.46 382.82 297.13 382 298.3C381.67 298.24 381.33 298.19 381 298.14C380.83 297.49 380.67 296.83 380.5 296.18C379 296.15 377.5 296.12 376 296.09C374.5 295.95 373 295.82 371.5 295.69C371.33 296.13 371.17 296.57 371 297.01C369.33 296.94 367.67 296.87 366 296.79C365.83 296.18 365.67 295.56 365.5 294.95C364.17 294.86 362.83 294.77 361.5 294.68C361.33 295.12 361.17 295.56 361 296C359.33 295.91 357.67 295.83 356 295.75C356 295.33 356 294.92 356 294.5C354.67 294.31 353.33 294.11 352 293.92C352 293.78 351.99 293.64 351.99 293.5C345.99 293.03 340 292.57 334 292.1C332.67 291.91 331.33 291.71 330 291.52C327.67 291.51 325.33 291.51 323 291.5C322.94 291.95 322.87 292.4 322.81 292.86C315.26 292.02 307.71 291.18 300.17 290.34C299.28 289.86 298.39 289.38 297.5 288.9C297.28 289.31 297.06 289.72 296.83 290.13C295.28 289.88 293.72 289.63 292.17 289.38C291.94 288.94 291.72 288.5 291.5 288.06C290.5 287.99 289.5 287.92 288.5 287.85C288.28 288.29 288.06 288.73 287.83 289.17C280.72 288.55 273.61 287.92 266.5 287.3C267.34 286.37 268.17 285.43 269 284.5C267.39 281.26 265.97 279.05 262.7 277.5C264.17 275.95 263.48 277.62 264.43 276.21C267.7 271.36 259.71 271.64 259.43 268.66C259.33 267.64 259.91 268.38 260.11 267.5C254.08 266.55 253.63 264.59 255.72 259.5C254.05 258.5 252.37 257.5 250.7 256.5C252.6 253.23 252.26 252.17 251.58 248.5C250.39 247.09 247.67 246.55 245.46 245.5C245.36 248.78 243.38 250.8 239.91 248.36C239.19 247.86 239.54 246.22 238.37 246.09C236.97 245.93 236.65 246.81 235.5 247.3C234.79 246.04 234.08 244.78 233.36 243.52C249.39 236.93 265.41 230.35 281.44 223.76ZM434 303.09C432 303 430 302.9 428 302.81C428 302.37 428 301.94 428 301.5C429.83 301.33 431.67 301.17 433.5 301C433.67 301.7 433.83 302.39 434 303.09Z" fill="#4d9747" fill-rule="evenodd" stroke="#4d9747" stroke-width="0.25" stroke-linejoin="round"/>
<path d="M848.26 196.34C881.26 199.05 914.25 201.75 947.24 204.46C944.78 208.61 937.18 210.85 932.78 213.29C920.31 220.21 907.58 226.64 895.12 233.55C874.44 245.03 853.43 255.91 832.62 267.16C812.55 278.01 792.69 289.47 772.31 299.85C758.62 306.83 745.46 314.77 731.92 321.99C727 324.62 720.26 326.69 716.88 331.04C696.26 328.98 675.63 326.91 655 324.84C655.32 318.78 657.99 323.45 660.02 320.26C660.52 319.47 659.42 316.05 659.5 314.82C667.7 319.05 664.63 313.95 667.26 310.5C669.34 310.87 671.42 311.25 673.5 311.62C677.75 307.94 677.29 303.07 682.92 301.5C682.6 301.07 682.02 300.85 681.77 300.37C681.41 299.64 684.08 298.4 684.43 298.08C686.64 296.09 687.39 293.91 690.55 293.06C691.22 292.88 692.95 293.07 693.44 292.77C693.92 292.47 695.15 290.31 695.5 289.78C698.58 290.19 698.07 288.66 700.55 287.38C701.31 286.99 702.7 287.53 703.55 287.39C707.38 286.76 706.39 286.55 710.5 287.72C712.47 285.5 713.24 285.94 714.78 283.5C716.63 283.5 717.83 283.88 719.5 283.28C723.04 281.52 723.32 278.19 724.5 274.95C724.93 275.03 725.06 275.64 725.44 275.85C725.99 276.15 732.69 272.31 733.5 271.78C735.27 273.66 735.87 273.95 738.5 274.32C739.77 272.98 741.76 271.88 742.87 270.44C743.3 269.87 743.2 269 743.74 268.5C744.93 267.36 746.84 267 748.39 265.5C747.74 262.83 747.09 260.17 746.44 257.5C747.68 257.04 753.8 253.93 754.56 253C755.03 252.41 754.82 251.2 754.87 250.5C758.17 251.38 759.81 251.35 762.53 248.91C763.03 248.47 763.23 247.45 763.79 247.13C764.71 246.63 765.44 247.23 766.23 246.86C768.18 245.94 769.99 243.02 771.5 241.48C772.18 241.96 773.57 243.38 774.45 243.41C776.4 243.48 779.75 240.26 780.28 238.41C780.7 236.96 780.42 235.02 780.5 233.49C780.78 233.38 781.01 233.89 781.31 233.89C782.02 233.89 784.08 231.14 784.07 230.43C784.07 229.83 783.49 229.05 783.39 228.5C785 227.58 792.9 222.1 787.3 220.31C786.64 220.1 785.92 220.6 785.23 220.5C786.61 218.99 788.94 216.36 790.81 215.62C792.99 214.75 794.01 215.67 795.48 213.5C797.93 213.37 801.1 214 803.43 213.16C803.98 212.96 804.23 212.16 804.81 212.06C806.65 211.76 809.46 212.77 809.7 209.48C809.76 208.68 808.66 206.77 808.5 206C808.94 205.85 809.09 205.12 809.55 205.08C810.23 205.03 810.81 205.79 811.5 205.76C814.95 205.6 814.49 201.51 814.7 199.5C818.91 197.36 817.68 198.67 821.5 198.45C822.72 198.38 824.19 197.63 825.5 197.41C829.32 199.23 832.42 197.88 836.47 198.27C838.29 198.45 839.62 198.87 841.5 198.89C842.93 198.9 846.21 199.57 847.44 198.7C848.5 197.96 847.89 197.41 848.26 196.34ZM233.36 243.52C234.08 244.78 234.79 246.04 235.5 247.3C236.65 246.81 236.97 245.93 238.37 246.09C239.54 246.22 239.19 247.86 239.91 248.36C243.38 250.8 245.36 248.78 245.46 245.5C247.67 246.55 250.39 247.09 251.58 248.5C252.26 252.17 252.6 253.23 250.7 256.5C252.37 257.5 254.05 258.5 255.72 259.5C253.63 264.59 254.08 266.55 260.11 267.5C259.91 268.38 259.33 267.64 259.43 268.66C259.71 271.64 267.7 271.36 264.43 276.21C263.48 277.62 264.17 275.95 262.7 277.5C265.97 279.05 267.39 281.26 269 284.5C268.17 285.43 267.34 286.37 266.5 287.3C266.34 287.27 266.17 287.24 266 287.21C265.5 286.5 265 285.79 264.5 285.07C256.17 284.36 247.83 283.64 239.5 282.92C238.86 283.56 238.22 284.2 237.58 284.85C237.39 284.8 237.19 284.75 237 284.71C236.83 284.12 236.67 283.54 236.5 282.95C235.53 282.93 234.56 282.9 233.58 282.88C231.61 282.05 230.29 281.82 228.17 282.61C226.64 282.37 225.12 282.12 223.6 281.87C221.9 281.55 220.2 281.22 218.5 280.9C218.28 281.39 218.06 281.87 217.83 282.36C217.61 282.36 217.39 282.36 217.17 282.36C216.94 281.9 216.72 281.45 216.5 280.99C215.67 281.25 214.83 281.52 214 281.78C212.05 279.4 208.46 280.05 205.5 279.73C197.53 278.87 188.94 278.99 181.17 277.21C180.94 276.9 180.72 276.59 180.5 276.28C179.17 276.54 177.85 276.79 176.52 277.04C170.85 276.64 165.17 276.23 159.5 275.82C159 275.1 158.5 274.38 158 273.65C183.12 263.61 208.24 253.56 233.36 243.52Z" fill="#3b8836" fill-rule="evenodd" stroke="#3b8836" stroke-width="0.25" stroke-linejoin="round"/>
<path d="M638 177.16C660.08 179.33 682.16 181.51 704.23 183.68C703.66 185.22 703.08 186.76 702.5 188.3C699.83 188.43 697.17 188.57 694.5 188.7C692.31 193.59 691.51 190.65 687.25 193.5C687.34 195.36 687.42 197.22 687.5 199.07C683.47 203.05 681.69 201.05 678.5 207C675.96 204.59 674.6 203.25 673.5 199.88C669.4 205.98 668.6 199.56 662.75 203.37C659.75 205.32 660.2 208.76 658.61 211.5C656.51 212.67 655.65 212.59 653.44 212.5C650.53 214.87 650.96 218.68 647.82 221.5C644.97 222.26 642.31 221.79 639.51 222.97C638.92 223.22 638.33 224.43 637.53 224.15C636.92 223.93 636.84 223.05 636.5 222.5C633.03 223.39 630.41 225.54 628.5 228.5C627.97 227.69 627.44 226.03 626.34 225.74C625.11 225.43 621.95 227.78 620.65 228.25C617.87 229.25 614.06 229.63 611.5 229.28C610.88 231.16 610.95 233.45 610.33 234.96C609.73 236.4 603.94 239.63 602.55 239.34C601.62 239.14 601.17 238.21 600.5 237.66C599.67 238.62 598.62 240.75 597.54 241.34C595.03 242.71 593.68 240.66 592.76 244.5C590.79 244.46 582.68 242.54 582.65 242.56C582.11 242.79 580.85 245.37 580.5 245.94C577.41 245.15 575.09 241.96 572.5 239.98C571.86 243.19 570.52 245.12 568.5 247.71C566.37 247.51 557.3 246.76 555.9 248.75C555.33 249.57 555.55 251.77 555.5 252.73C552.09 251.01 552.54 252.2 549.5 251.89C548.65 251.81 548.38 251.23 547.5 251.28C546.4 251.34 545.57 252.23 544.48 252.24C542.6 252.26 540.33 250.73 538.5 250.27C537.11 251.29 534.83 252.09 533.56 253.34C532.74 254.15 532.41 255.18 531.5 256C528.99 257.16 527.55 257.22 525.5 259.3C520.1 256.37 521.37 259.15 516.81 258.26C515.85 258.07 515.61 257.45 514.5 257.49C513.75 257.52 513.34 258.19 512.55 258.08C508.82 257.54 508.52 254.65 503.5 256.04C501.43 252.9 499.85 253.45 496.5 252.42C494.83 253.58 493.17 254.75 491.5 255.91C488.57 255.76 487.89 254.64 485.5 253.76C483.97 255.34 482.43 256.92 480.9 258.5C479.33 257.5 477.75 256.5 476.18 255.5C478.11 253.15 479.92 254.32 480.5 253.53C481.67 251.93 478.41 249.05 477.5 247.96C475.81 248.81 474.11 249.65 472.42 250.5C470.22 251.36 470.71 249.98 468.44 249.78C467.72 249.72 467.19 250.74 466.47 250.78C465.6 250.83 465.14 250.01 464.42 250.01C460.78 250.02 462.32 251.55 458.5 248.86C453.23 249.92 453.47 253.24 450.04 254.44C448.1 255.12 445.69 255.44 443.5 256.22C442.01 254.79 442.19 254.13 441.28 253.15C438.81 250.46 434.48 253 431.5 247.5C430.04 247.91 427.98 248.85 426.5 248.68C425.01 248.5 425.27 247.31 424.4 246.76C421.25 244.76 419.36 245.41 416.5 247.23C415.52 246.22 414.57 244.82 413.38 244.01C413.21 243.9 403.65 239.78 403.49 239.76C401.83 239.56 399.74 240.3 398.09 240.5C398.26 239.96 399.65 237.64 399.61 237.45C399.05 235 395.11 236.33 393.73 235.73C392.71 235.28 392.88 233.58 391.43 233.48C390.33 233.41 389.3 235.23 387.5 235.69C385.79 231.89 384.03 234.48 384.87 229.5C382.27 227.88 381.17 226.8 379.5 224.31C375.54 224.43 372.43 222.26 369.5 220.15C367.83 221.53 366.17 222.91 364.5 224.29C362.72 221.49 358.26 216.78 355.02 215.32C352.95 214.4 351.47 215.6 349.5 215.5C349.35 213.83 349.19 212.17 349.04 210.5C345.53 209.89 345.77 209.68 343.25 207.85C341.73 206.75 339.49 207.07 337.8 206.59C336.93 206.34 336.47 205.58 335.5 205.44C332.64 205.02 331.37 206.47 328.96 204.61C332.34 201.18 338.46 199.58 343 197.95C353.64 194.14 363.78 187.86 374.7 184.89C375.63 185.59 376.57 186.29 377.5 186.99C381.84 187.3 385.19 185.49 389.5 186.64C393.15 181.85 399.56 185.23 404.5 185.66C407.06 189.18 407.78 191.46 407.5 195.84C410.58 195.04 411.07 196.05 412.5 198.69C420.06 192.52 425.42 197.07 433.5 196.36C434.17 198.51 434.83 200.65 435.5 202.8C440.44 198.43 446.95 202.1 451.5 197.98C454.21 202.47 456.36 200.06 459.33 203.18C460.11 203.98 460.17 205.18 460.95 206.04C461.99 207.17 466.78 209.87 468.5 210.82C471.6 208.68 475.32 207.73 478.5 209.77C479.1 209.09 479 208.4 479.74 207.84C481.36 206.59 492.13 206.5 494.5 206.99C496.66 198.53 496.67 203.93 503.5 200.86C506.17 203.44 508.83 206.02 511.5 208.6C514.32 207.86 515.28 206.79 517.5 205.12C521 209.86 523.02 207.97 527.5 210.57C529.47 207.24 530.15 206.07 533.5 203.67C534.83 204.58 536.17 205.49 537.5 206.4C538.92 205.65 540.4 203.31 541.71 202.9C544.46 202.05 542.58 204.44 545.82 202.5C546.82 199.58 552.03 196.16 553.02 200.5C553.44 200.26 554.11 200.75 554.46 200.42C555.03 199.86 555.13 198.41 555.67 197.69C556.38 196.73 558.56 195.54 559.5 194.7C562.08 200.43 564.47 198.01 568.25 195.68C569.73 194.76 572.89 194.79 573.83 196.62C574.28 197.51 574.3 199.39 574.5 200.22C577.17 200.09 579.83 199.95 582.5 199.82C583.44 196.96 581.05 200.16 582.49 197.7C582.87 197.06 588.43 193.14 589.5 192.16C592.13 193.23 592.39 193.37 593.5 195.86C594.83 193.81 596.17 191.75 597.5 189.7C599.38 189.81 599.87 191.44 601.51 191.69C603.14 191.94 603.46 189.98 604.52 189.55C605.46 189.17 606.33 189.74 607.31 189.32C608.18 188.94 608.52 187.82 609.53 187.39C611.12 186.72 613.58 187.39 615.27 186.27C616.15 185.69 616.47 184.54 617.39 183.91C618.59 183.08 627.94 179.2 629.53 178.74C631.48 178.16 633.61 178.59 635.5 179.08C636.33 178.44 637.17 177.8 638 177.16Z" fill="#72b36b" fill-rule="evenodd" stroke="#72b36b" stroke-width="0.25" stroke-linejoin="round"/>
<path d="M638 177.16C637.17 177.8 636.33 178.44 635.5 179.08C633.61 178.59 631.48 178.16 629.53 178.74C627.94 179.2 618.59 183.08 617.39 183.91C616.47 184.54 616.15 185.69 615.27 186.27C613.58 187.39 611.12 186.72 609.53 187.39C608.52 187.82 608.18 188.94 607.31 189.32C606.33 189.74 605.46 189.17 604.52 189.55C603.46 189.98 603.14 191.94 601.51 191.69C599.87 191.44 599.38 189.81 597.5 189.7C596.17 191.75 594.83 193.81 593.5 195.86C592.39 193.37 592.13 193.23 589.5 192.16C588.43 193.14 582.87 197.06 582.49 197.7C581.05 200.16 583.44 196.96 582.5 199.82C579.83 199.95 577.17 200.09 574.5 200.22C574.3 199.39 574.28 197.51 573.83 196.62C572.89 194.79 569.73 194.76 568.25 195.68C564.47 198.01 562.08 200.43 559.5 194.7C558.56 195.54 556.38 196.73 555.67 197.69C555.13 198.41 555.03 199.86 554.46 200.42C554.11 200.75 553.44 200.26 553.02 200.5C552.03 196.16 546.82 199.58 545.82 202.5C542.58 204.44 544.46 202.05 541.71 202.9C540.4 203.31 538.92 205.65 537.5 206.4C536.17 205.49 534.83 204.58 533.5 203.67C530.15 206.07 529.47 207.24 527.5 210.57C523.02 207.97 521 209.86 517.5 205.12C515.28 206.79 514.32 207.86 511.5 208.6C508.83 206.02 506.17 203.44 503.5 200.86C496.67 203.93 496.66 198.53 494.5 206.99C492.13 206.5 481.36 206.59 479.74 207.84C479 208.4 479.1 209.09 478.5 209.77C475.32 207.73 471.6 208.68 468.5 210.82C466.78 209.87 461.99 207.17 460.95 206.04C460.17 205.18 460.11 203.98 459.33 203.18C456.36 200.06 454.21 202.47 451.5 197.98C446.95 202.1 440.44 198.43 435.5 202.8C434.83 200.65 434.17 198.51 433.5 196.36C425.42 197.07 420.06 192.52 412.5 198.69C411.07 196.05 410.58 195.04 407.5 195.84C407.78 191.46 407.06 189.18 404.5 185.66C399.56 185.23 393.15 181.85 389.5 186.64C385.19 185.49 381.84 187.3 377.5 186.99C376.57 186.29 375.63 185.59 374.7 184.89C380.01 181.33 387.05 179.5 393 177.05C401.14 173.71 409.18 169.96 417.38 166.69C423.29 164.34 430.11 159.98 436.5 159.41C443.01 158.83 450.47 160.79 457 161.28C477.86 162.84 498.67 164.96 519.5 166.82C551.34 169.66 583.18 172.32 615 175.26C622.65 175.96 630.39 176.11 638 177.16ZM158 273.65C158.5 274.38 159 275.1 159.5 275.82C165.17 276.23 170.85 276.64 176.52 277.04C176.35 277.53 176.17 278.01 176 278.5C168.53 277.84 161.06 277.19 153.59 276.53C154.06 276.19 154.53 275.84 155 275.5C156.19 273.99 155.9 274.08 158 273.65ZM181.17 277.21C188.94 278.99 197.53 278.87 205.5 279.73C208.46 280.05 212.05 279.4 214 281.78C203.17 280.92 192.33 280.07 181.5 279.21C180.69 277.95 180.17 278.67 181.17 277.21ZM223.6 281.87C223.4 282.22 223.2 282.57 223 282.93C221.28 282.74 219.56 282.55 217.83 282.36C218.06 281.87 218.28 281.39 218.5 280.9C220.2 281.22 221.9 281.55 223.6 281.87ZM233.58 282.88C233.33 283.27 233.08 283.67 232.83 284.06C231.22 283.93 229.61 283.8 228 283.66C228.06 283.31 228.11 282.96 228.17 282.61C230.29 281.82 231.61 282.05 233.58 282.88ZM266 287.21C256.53 286.42 247.06 285.64 237.58 284.85C238.22 284.2 238.86 283.56 239.5 282.92C247.83 283.64 256.17 284.36 264.5 285.07C265 285.79 265.5 286.5 266 287.21ZM330 291.52C330 292.02 330 292.51 330 293.01C327.6 292.96 325.2 292.91 322.81 292.86C322.87 292.4 322.94 291.95 323 291.5C325.33 291.51 327.67 291.51 330 291.52ZM334 292.1C340 292.57 345.99 293.03 351.99 293.5C351.99 293.64 352 293.78 352 293.92C352 294.27 352 294.63 352 294.99C346 294.55 340 294.12 334 293.68C334 293.16 334 292.63 334 292.1ZM376 296.09C377.5 296.12 379 296.15 380.5 296.18C380.67 296.83 380.83 297.49 381 298.14C379.33 297.99 377.67 297.84 376 297.69C376 297.15 376 296.62 376 296.09ZM426 302.51C422.5 302.17 419 301.83 415.5 301.49C415.39 301.3 415.28 301.11 415.18 300.91C415.62 300.51 416.06 300.11 416.5 299.71C419.5 299.99 422.5 300.28 425.5 300.57C425.67 301.22 425.83 301.86 426 302.51ZM444 304.08C442.06 303.81 440.11 303.55 438.17 303.28C438.28 302.8 438.39 302.33 438.5 301.85C440.37 302.07 442.23 302.28 444.1 302.5C444.07 303.03 444.03 303.55 444 304.08Z" fill="#85bf7e" fill-rule="evenodd" stroke="#85bf7e" stroke-width="0.25" stroke-linejoin="round"/>
<path d="M217.17 282.36C216.11 282.16 215.06 281.97 214 281.78C214.83 281.52 215.67 281.25 216.5 280.99C216.72 281.45 216.94 281.9 217.17 282.36ZM223.6 281.87C225.12 282.12 226.64 282.37 228.17 282.61C228.11 282.96 228.06 283.31 228 283.66C226.33 283.42 224.67 283.17 223 282.93C223.2 282.57 223.4 282.22 223.6 281.87ZM233.58 282.88C234.56 282.9 235.53 282.93 236.5 282.95C236.67 283.54 236.83 284.12 237 284.71C235.61 284.49 234.22 284.28 232.83 284.06C233.08 283.67 233.33 283.27 233.58 282.88ZM292.17 289.38C290.72 289.31 289.28 289.24 287.83 289.17C288.06 288.73 288.28 288.29 288.5 287.85C289.5 287.92 290.5 287.99 291.5 288.06C291.72 288.5 291.94 288.94 292.17 289.38ZM330 291.52C331.33 291.71 332.67 291.91 334 292.1C334 292.63 334 293.16 334 293.68C332.67 293.46 331.33 293.23 330 293.01C330 292.51 330 292.02 330 291.52ZM352 293.92C353.33 294.11 354.67 294.31 356 294.5C356 294.92 356 295.33 356 295.75C354.67 295.49 353.33 295.24 352 294.99C352 294.63 352 294.27 352 293.92ZM366 296.79C364.33 296.53 362.67 296.26 361 296C361.17 295.56 361.33 295.12 361.5 294.68C362.83 294.77 364.17 294.86 365.5 294.95C365.67 295.56 365.83 296.18 366 296.79ZM376 296.09C376 296.62 376 297.15 376 297.69C374.33 297.46 372.67 297.24 371 297.01C371.17 296.57 371.33 296.13 371.5 295.69C373 295.82 374.5 295.95 376 296.09ZM291.68 506C291.67 508 291.65 510 291.64 512C291.36 511.83 291.07 511.67 290.79 511.5C290.8 509.83 290.8 508.17 290.81 506.5C291.1 506.33 291.39 506.17 291.68 506ZM291.62 517C291.63 522.33 291.65 527.67 291.67 533C291.38 532.83 291.1 532.67 290.81 532.5C290.8 527.5 290.79 522.5 290.77 517.5C291.06 517.33 291.34 517.17 291.62 517ZM291.67 537C291.69 541.33 291.7 545.67 291.72 550C291.43 549.83 291.14 549.67 290.85 549.5C290.84 545.5 290.82 541.5 290.81 537.5C291.1 537.33 291.39 537.17 291.67 537ZM291.76 561C291.93 566 292.11 571 292.28 576C292.14 576.33 292 576.67 291.85 577C291.59 576.83 291.33 576.67 291.07 576.5C291.01 571.5 290.94 566.5 290.88 561.5C291.17 561.33 291.47 561.17 291.76 561ZM393.2 567.63C393.39 569.42 393.57 571.21 393.75 573C393.49 572.83 393.22 572.67 392.96 572.5C393.04 570.88 393.12 569.25 393.2 567.63ZM291.87 579C292.11 581.33 292.34 583.67 292.58 586C292.36 586.33 292.14 586.67 291.92 587C291.69 586.83 291.46 586.67 291.23 586.5C291.19 584.17 291.16 581.83 291.12 579.5C291.37 579.33 291.62 579.17 291.87 579ZM274.43 618C274.69 618.17 274.94 618.33 275.2 618.5C275.2 620.5 275.21 622.5 275.21 624.5C274.97 624.67 274.72 624.83 274.47 625C274.46 622.67 274.45 620.33 274.43 618ZM238.15 621.79C238.48 622.19 238.8 622.6 239.13 623C239.12 624.67 239.11 626.33 239.1 628C238.78 628.38 238.45 628.77 238.13 629.15C238.14 626.7 238.14 624.24 238.15 621.79ZM430.03 643C430.29 643 430.56 643 430.82 643C430.69 644.67 430.56 646.33 430.43 648C430.19 647.83 429.96 647.67 429.72 647.5C429.83 646 429.93 644.5 430.03 643ZM430.08 654C430.34 654.17 430.6 654.33 430.85 654.5C430.82 655.83 430.8 657.17 430.77 658.5C430.54 658.67 430.3 658.83 430.07 659C429.93 658.67 429.79 658.33 429.65 658C429.79 656.67 429.94 655.33 430.08 654ZM440.05 661.9C439.7 662.1 439.35 662.3 439 662.5C437.94 662.27 436.89 662.04 435.83 661.81C436.06 661.49 436.28 661.17 436.5 660.85C437.68 661.2 438.87 661.55 440.05 661.9ZM487.45 667.98C486.3 668.15 485.15 668.33 484 668.5C483.67 668.18 483.33 667.86 483 667.54C483.17 667.29 483.33 667.04 483.5 666.79C484.82 667.18 486.13 667.58 487.45 667.98Z" fill="#b2cbb0" fill-rule="evenodd" stroke="#b2cbb0" stroke-width="0.25" stroke-linejoin="round"/>
</svg>